<svg version="1.1" id="svg"xmlns="http://www.w3.org/2000/svg" xmlns:xlink="http://www.w3.org/1999/xlink" x="0px" y="0px"
	  xml:space="preserve">
<path fill="#000000" opacity="1.000000" stroke="none" 
	d="
M236.022797,519.986572 
	C233.192902,522.868835 222.058731,523.830750 218.944244,521.492615 
	C217.501312,520.409424 217.710876,518.852356 217.701248,517.389526 
	C217.659561,511.057404 217.702850,504.724579 217.641296,498.392731 
	C217.623993,496.613251 218.060730,494.682129 216.114746,492.765503 
	C212.848282,498.163330 207.136627,491.755707 203.291550,495.566193 
	C201.697891,495.635284 202.167313,493.580566 200.620239,493.260529 
	C199.401337,493.936249 197.992676,494.717133 196.289200,495.661499 
	C195.027588,492.266510 196.117538,490.174408 198.640961,488.260681 
	C206.738373,482.119781 214.635498,475.710571 222.822937,469.694855 
	C225.869278,467.456512 227.305725,464.943878 226.799820,461.284210 
	C226.504471,459.147705 226.282181,456.985809 225.774216,454.896820 
	C224.057602,447.837280 221.496735,441.046112 221.074326,433.600708 
	C220.734131,427.604706 216.945663,423.643036 210.632660,422.547791 
	C206.439117,421.820251 203.016708,420.549866 201.461548,415.518188 
	C200.279877,411.694885 195.749390,412.985657 192.992874,413.815887 
	C190.081757,414.692688 188.074509,415.211884 185.372040,413.130219 
	C183.247574,411.493835 180.351089,410.635742 177.996750,413.842773 
	C174.803497,418.192505 170.824814,414.489777 167.575226,413.928375 
	C162.388901,413.032349 156.862274,412.161865 152.510757,408.509979 
	C151.816513,407.927338 150.982498,408.119965 150.167313,408.511200 
	C149.592133,408.787262 148.897247,409.059082 148.297012,408.987488 
	C146.993729,408.832031 141.742081,400.143097 142.172897,398.763763 
	C143.103851,395.783081 142.973297,393.378265 140.045868,391.363434 
	C137.947708,389.919342 138.119202,386.679016 139.299026,385.515717 
	C141.728531,383.120178 142.567551,380.623322 143.103943,377.392853 
	C143.596161,374.428436 146.451981,374.688354 148.828186,375.472260 
	C150.462326,376.011353 151.634140,377.954468 153.544464,377.251099 
	C154.699844,376.189148 154.460526,375.078033 153.790741,374.376587 
	C151.595245,372.077362 149.278275,370.084747 150.710648,366.251190 
	C152.407028,361.711029 153.995529,357.172333 158.558807,354.702789 
	C162.880203,352.364197 166.035217,349.524933 165.434738,343.972992 
	C165.232849,342.106201 166.176010,340.157379 168.500259,340.135498 
	C176.959244,340.055817 182.020676,333.987732 187.667999,329.174713 
	C193.504135,324.200836 198.586563,318.199432 206.772446,317.011810 
	C211.516495,316.323517 216.241394,314.882751 220.811417,318.151947 
	C223.583801,320.135193 226.568848,318.147858 229.364197,317.434601 
	C235.540878,315.858582 237.145676,316.563141 239.080612,322.141815 
	C239.388733,322.250061 239.820068,322.541321 239.990479,322.430664 
	C248.684097,316.787018 255.369568,323.405029 262.633087,326.200348 
	C264.730316,327.007477 266.312408,328.532227 269.040558,327.830811 
	C276.391327,325.940765 282.775879,330.023865 289.522919,331.819611 
	C290.082184,331.968445 290.908020,332.592438 290.936218,333.038239 
	C291.357422,339.697632 297.755890,340.446686 301.328491,343.996552 
	C304.003601,346.654663 305.729370,350.502930 307.141785,354.109497 
	C307.996582,356.292297 309.008453,358.214447 310.176331,360.216095 
	C311.718384,362.859009 313.132965,365.869507 311.470245,369.157959 
	C311.188110,369.716034 310.810883,370.716644 311.053162,370.976837 
	C315.836304,376.113251 311.819397,379.834808 308.967438,383.209229 
	C309.223846,385.613129 310.756561,386.732574 311.850830,387.703766 
	C313.894470,389.517517 314.248718,390.968964 312.622101,393.166382 
	C311.519623,394.655762 310.601410,396.682159 311.448334,398.340027 
	C314.126007,403.581635 311.068054,405.544250 306.599335,406.984711 
	C308.822052,412.796082 304.280365,413.301849 300.982605,414.846130 
	C297.824066,413.306854 298.371887,407.023071 292.909149,409.132996 
	C289.913818,415.874695 283.071503,416.546173 277.156708,410.320496 
	C275.121521,413.931946 272.285797,416.504547 268.400696,418.048035 
	C265.597260,419.161743 264.301056,421.838989 263.469940,424.636810 
	C262.054596,429.401428 259.035126,432.612518 254.559113,434.809753 
	C249.202713,437.439209 246.823044,445.826050 249.309341,451.152344 
	C250.518036,453.741669 248.887970,456.312042 248.088882,458.780396 
	C246.288376,464.341980 247.445389,466.697601 253.092651,468.480499 
	C254.203995,468.831390 255.366852,469.039642 256.447784,469.462402 
	C259.835052,470.787018 260.738220,472.900574 258.493164,476.045502 
	C256.266296,479.164917 253.110901,482.850922 256.130768,486.301666 
	C258.960510,489.535248 263.722595,488.101440 267.457123,486.932526 
	C276.071075,484.236389 276.023956,484.049927 269.855042,477.216003 
	C266.892914,473.934631 263.763580,470.825714 268.344421,466.351471 
	C269.540741,465.182983 268.940125,463.144440 268.241241,461.577026 
	C265.349670,455.092072 264.618103,446.355133 253.976028,448.408081 
	C253.850266,445.372681 255.816345,444.403107 257.297760,443.218964 
	C264.971283,437.085358 272.856079,431.206268 280.363464,424.878082 
	C285.369293,420.658600 290.849182,418.142670 297.284149,417.037567 
	C325.822510,412.136627 354.327179,407.039551 382.847565,402.033661 
	C383.932953,401.843140 385.130066,401.365875 386.431976,402.931183 
	C382.832092,407.602020 377.611969,410.709808 373.601166,415.020538 
	C372.697327,415.991943 371.537659,416.819366 370.925720,417.946472 
	C369.995850,419.659241 371.496521,420.688019 372.566864,421.687286 
	C374.251892,423.260437 375.666229,422.155975 376.935577,421.031036 
	C381.921936,416.611908 386.971741,412.255768 391.783844,407.652344 
	C394.204529,405.336670 396.011932,404.966431 398.387909,407.652252 
	C422.010468,434.355621 448.122650,458.682678 472.221191,484.933472 
	C473.327332,486.138397 474.313995,487.453033 475.420013,488.793823 
	C471.857758,492.950897 469.443481,488.678864 466.656189,488.017761 
	C464.245789,491.340271 450.417816,491.458252 445.988403,488.058472 
	C444.266266,490.747009 441.595337,490.610840 438.881012,490.246368 
	C438.085175,490.139496 436.984924,489.458832 436.572937,489.769287 
	C431.882568,493.304108 434.359528,498.341736 434.172424,502.753632 
	C434.019287,506.364441 437.108795,505.830872 439.311157,505.556976 
	C445.416351,504.797668 451.483948,503.740326 457.582825,502.923248 
	C459.488647,502.667938 461.502380,501.876831 463.716217,503.428802 
	C463.089935,514.192322 461.555389,525.022827 460.111359,535.859863 
	C460.009094,536.627502 459.589783,537.502991 459.035736,538.033875 
	C456.814240,540.162537 446.015686,538.181030 444.650726,535.408142 
	C443.917267,533.918152 443.294006,532.357849 442.785156,530.776428 
	C441.037628,525.345764 438.376617,523.763062 433.039032,525.915771 
	C430.284637,527.026611 427.908325,527.563354 424.948273,526.857239 
	C422.304932,526.226746 419.855072,528.041992 417.308868,528.752686 
	C412.445496,530.110168 410.809265,528.490906 411.944733,523.658936 
	C412.364807,521.871277 412.881836,520.141602 412.332306,518.263367 
	C411.017883,513.770569 409.187439,509.235687 404.042084,508.691345 
	C399.128723,508.171478 397.640167,512.750244 396.089966,516.400635 
	C394.792938,519.454834 393.843170,522.660706 392.816193,525.824219 
	C391.996674,528.348572 390.813293,529.773010 388.198578,527.688110 
	C384.921387,525.074951 381.835022,524.596497 377.639343,526.459900 
	C374.790253,527.725220 370.924622,526.701538 367.356079,526.701538 
	C366.311707,525.225037 366.779755,523.333679 366.775299,521.547791 
	C366.734589,505.217010 366.567200,488.883240 366.837402,472.556946 
	C366.923096,467.379822 365.069855,465.925629 360.139893,466.124176 
	C351.821533,466.459198 343.469696,466.447296 335.151459,466.105896 
	C330.684357,465.922516 329.353943,467.517151 329.392517,471.797699 
	C329.545593,488.784058 329.301483,505.774689 329.534119,522.759216 
	C329.598938,527.491638 328.221283,529.500183 323.324799,529.278442 
	C318.508484,529.060303 313.661560,529.622681 309.467285,526.375977 
	C308.473969,525.607117 306.727081,524.770691 305.737885,525.722961 
	C302.295959,529.036377 298.404083,525.880615 294.740509,526.749878 
	C291.852417,527.435181 292.122833,524.283386 292.124115,522.473450 
	C292.131073,512.647461 292.302765,502.821594 292.423462,492.995789 
	C292.457214,490.248413 293.131897,487.255737 288.974762,485.496338 
	C288.788513,498.914978 289.600311,512.009521 287.827667,525.236145 
	C283.281830,521.263550 279.651245,516.966370 274.637543,514.308228 
	C274.188660,514.070190 274.025543,513.178772 273.850525,512.556824 
	C272.496155,507.743805 269.719482,505.645905 265.311951,507.802032 
	C259.988190,510.406403 254.343536,510.086914 248.919205,511.379059 
	C243.821259,512.593506 239.076584,514.565308 236.092285,519.694336 
	C236.000031,520.006958 236.022797,519.986572 236.022797,519.986572 
M236.638138,424.387512 
	C235.757950,432.019287 235.225967,439.634857 237.638031,447.176544 
	C242.702057,436.627411 243.536255,425.162842 246.587921,413.509613 
	C238.786026,416.771851 238.745682,416.816956 236.638138,424.387512 
M225.636414,420.714996 
	C226.773026,421.623901 227.030441,423.401123 228.663345,423.828491 
	C232.497375,418.393890 231.585159,406.891083 227.036041,403.918549 
	C226.386337,405.033051 225.192169,406.141907 225.187531,407.255707 
	C225.169556,411.571594 221.802048,415.911316 225.636414,420.714996 
M250.812195,419.709106 
	C250.519821,420.968597 249.909897,422.319977 251.712646,422.980225 
	C258.824158,419.764038 257.728546,412.584961 259.522766,406.843018 
	C259.833069,405.849884 258.828369,405.043793 257.774353,404.774597 
	C256.595673,404.473663 255.474838,405.182892 255.551758,406.130463 
	C255.959808,411.156555 251.696350,414.455597 250.812195,419.709106 
M206.370239,413.757477 
	C207.278107,415.450623 208.596283,416.537384 210.241959,414.933868 
	C211.223907,413.977020 211.134293,412.125366 209.830841,411.445068 
	C208.281174,410.636200 206.171799,410.033417 206.370239,413.757477 
M270.784515,411.274872 
	C271.887848,409.881012 272.100616,408.676361 269.882721,407.828125 
	C268.259979,409.065369 266.921722,410.496033 266.686493,412.992035 
	C268.310425,413.228455 269.338226,412.515228 270.784515,411.274872 
z"/>
<path fill="#000000" opacity="1.000000" stroke="none" 
	d="
M292.954071,565.023682 
	C296.970398,562.713135 300.572510,562.588684 304.579163,565.676636 
	C307.447174,567.887085 311.078796,566.638916 313.994904,564.779114 
	C316.546906,563.151550 318.356293,562.953979 320.956665,565.160522 
	C325.597412,569.098267 329.233429,567.701843 330.827240,561.958862 
	C331.884918,558.147766 331.884918,558.147766 334.295074,555.297363 
	C335.880798,556.797424 335.707275,558.919617 336.295166,560.679932 
	C338.095947,566.071899 341.141479,568.507568 346.707336,567.898926 
	C350.193115,567.517700 352.405945,567.850159 353.212372,571.785522 
	C353.720551,574.265320 355.599854,576.112183 357.524933,577.777039 
	C359.404022,579.402161 362.201416,579.523071 364.324341,582.206848 
	C359.725800,585.891663 355.194153,589.522949 350.149658,593.565125 
	C350.463348,585.917358 345.744446,582.777344 339.446014,585.931763 
	C336.842712,587.235596 335.224487,587.144470 332.707123,585.903625 
	C327.552307,583.362427 323.153900,585.194458 320.431793,590.351257 
	C320.047852,591.078552 319.798950,591.922607 318.321045,591.999084 
	C318.105042,588.978210 315.104309,586.078125 318.922607,582.952942 
	C320.526978,581.639771 319.187958,579.861755 318.167816,578.522827 
	C314.267059,573.403442 307.176910,572.818970 301.730255,577.246277 
	C297.391022,580.773438 294.312714,585.338501 291.681763,590.198608 
	C287.787018,597.393188 284.692383,604.933472 282.095917,612.692078 
	C281.603577,614.163208 281.787079,616.067810 279.628479,617.207031 
	C277.860291,613.167725 279.602753,609.363770 280.255615,605.725281 
	C281.491699,598.836426 283.924408,592.258362 286.648254,585.790771 
	C287.962494,582.670166 291.091125,579.099792 285.700226,576.560425 
	C280.335846,574.033508 274.299408,575.416687 272.302795,580.235413 
	C270.403748,584.818665 269.054016,589.687317 267.990234,594.545959 
	C266.141052,602.991638 264.337067,611.472412 266.348755,620.229309 
	C268.091034,627.813354 272.767609,632.840210 279.202301,633.807068 
	C283.032806,634.382568 285.410980,633.440674 286.705017,629.330139 
	C289.304474,621.073120 292.400208,612.972107 296.491669,605.300781 
	C297.014526,604.320496 297.176422,603.017517 298.912598,602.796875 
	C299.957214,604.620056 298.702240,606.176453 298.217163,607.782715 
	C296.296753,614.141724 294.102631,620.455261 295.176941,627.279663 
	C295.474640,629.170837 294.689697,630.480286 293.059723,631.394104 
	C283.025696,637.019165 272.677887,642.002197 262.168640,646.671143 
	C259.202911,647.988708 257.911682,646.084290 256.421326,644.248840 
	C242.769119,627.434998 229.107254,610.629028 215.455017,593.815247 
	C209.573837,586.572205 203.687851,579.332764 197.856613,572.049622 
	C196.869583,570.816772 195.309875,569.807190 195.545898,568.137146 
	C204.191254,568.137146 212.732178,568.107544 221.271988,568.191040 
	C221.985687,568.197998 222.814407,568.842041 223.383514,569.400269 
	C234.559753,580.361816 247.788773,580.257019 261.609650,576.358398 
	C267.438446,574.714172 272.772552,571.978271 276.880951,567.304871 
	C279.144379,564.730225 281.874542,564.158569 284.983917,565.519470 
	C287.524597,566.631592 290.026215,567.347351 292.763794,565.242920 
	C292.991302,565.000244 292.954071,565.023682 292.954071,565.023682 
z"/>
<path fill="#000000" opacity="1.000000" stroke="none" 
	d="
M390.037048,541.976135 
	C387.511047,547.468323 386.625824,553.418884 385.307068,559.237854 
	C384.530670,562.663818 383.621002,566.032043 382.090027,569.177795 
	C378.433777,576.690308 372.027985,580.278442 364.336731,579.278381 
	C358.116852,578.469666 354.602020,574.134277 353.148499,565.471863 
	C352.831451,565.415955 352.441223,565.219360 352.206024,565.335815 
	C340.886017,570.940979 335.322632,561.744080 337.186340,552.721375 
	C338.202576,547.801514 339.733124,543.086853 341.967499,538.539612 
	C337.670441,542.754089 334.718018,547.857727 332.531830,553.427734 
	C331.439484,556.210876 330.623413,559.101440 329.640839,561.928894 
	C327.903259,566.929016 325.087433,567.497070 321.363159,563.565613 
	C320.353424,562.499695 319.514954,561.271484 318.606964,560.129272 
	C308.353638,567.129761 304.808472,566.975891 299.119537,559.199219 
	C297.205841,560.984192 295.304962,562.757202 293.179077,564.776978 
	C292.954071,565.023682 292.991302,565.000244 293.008209,564.985901 
	C284.333069,567.079651 281.062683,560.422668 280.935333,554.280457 
	C280.762878,545.965454 282.962982,538.108337 289.139862,531.938354 
	C294.006195,527.077393 297.025879,526.808838 303.000549,530.895142 
	C304.263336,528.578735 305.293915,525.615295 309.043457,527.391846 
	C313.660400,529.579346 316.979004,534.892456 315.945740,539.532532 
	C315.446808,541.773254 314.343719,543.890442 313.419220,546.022400 
	C312.417969,548.331482 311.388947,550.598816 312.855682,553.158813 
	C315.720886,553.840393 316.645020,551.562134 317.796997,549.880737 
	C320.280121,546.256409 321.284027,541.982422 322.740753,537.914795 
	C324.271057,533.641602 326.716827,530.238159 331.196350,528.698059 
	C333.559509,527.885620 336.165558,526.697021 338.275452,528.676758 
	C340.555298,530.816101 337.864899,532.912415 337.335571,535.975769 
	C340.685547,532.609192 343.483276,529.669983 347.134460,527.923096 
	C352.722198,525.249634 356.330414,527.546631 356.263702,533.723816 
	C356.207947,538.884155 353.789001,543.334351 351.837097,547.918701 
	C350.948090,550.006714 349.395721,551.963684 350.791656,555.344055 
	C354.734833,553.018494 356.583282,549.602661 357.653534,545.631165 
	C359.014740,540.579956 360.962311,535.840149 364.577942,531.954895 
	C368.739288,527.483276 372.449371,526.837097 378.031799,529.625427 
	C379.175049,527.808533 379.891022,525.187012 382.990814,526.151672 
	C386.786072,527.332764 389.509430,529.729553 390.165131,533.684265 
	C390.565674,536.099976 390.116852,538.656433 390.027710,541.582886 
	C390.005859,542.016113 390.037048,541.976135 390.037048,541.976135 
M298.077057,549.425598 
	C300.026581,545.092346 302.155365,540.778931 299.862610,535.794250 
	C294.540436,538.498108 292.015656,546.437866 294.168152,553.024414 
	C296.270416,553.137329 296.737213,551.288269 298.077057,549.425598 
M376.705566,538.944153 
	C376.397491,536.829834 375.696808,533.895020 373.403778,537.044739 
	C370.104156,541.577148 368.608856,546.987488 369.937469,554.162903 
	C374.360992,549.378113 376.227783,544.882446 376.705566,538.944153 
M356.191772,562.041809 
	C361.468750,568.886841 367.600800,569.586121 371.705841,562.810730 
	C366.270111,566.482422 362.025574,566.019409 358.502136,561.388611 
	C357.895905,560.591858 357.037262,560.767761 356.191772,562.041809 
z"/>
<path fill="#000000" opacity="1.000000" stroke="none" 
	d="
M379.867493,634.989075 
	C381.163025,634.008789 382.594208,633.658691 383.014832,631.678467 
	C379.259888,631.490479 376.039795,630.050964 373.657898,627.168518 
	C365.200012,634.212280 363.199646,634.332153 357.022217,627.939026 
	C352.482727,632.131714 347.720581,632.691956 343.478210,627.580933 
	C334.758972,633.816711 333.016022,633.938354 327.186920,628.943848 
	C317.557922,633.749512 316.580017,633.701904 311.778931,628.082825 
	C311.392975,628.221008 310.815582,628.249939 310.542084,628.553101 
	C307.769409,631.626282 304.465698,633.685303 300.409637,631.696655 
	C296.472534,629.766174 296.503235,625.687439 296.874969,622.023865 
	C297.574768,615.127014 299.147736,608.445007 303.200317,602.090881 
	C305.298523,604.274292 306.484589,606.669678 309.557892,606.378357 
	C308.484711,613.831848 304.030762,620.123413 305.686218,628.196594 
	C310.157196,625.565002 311.336243,621.969849 312.217102,618.315674 
	C314.451965,609.044739 317.794922,600.182617 321.740936,591.528625 
	C323.187836,588.355408 328.031769,585.985718 331.084839,587.113037 
	C333.990967,588.186096 332.721710,590.320740 332.002930,592.102783 
	C328.765564,600.128845 325.308838,608.069763 322.236603,616.157471 
	C320.925812,619.608215 319.344086,623.235901 320.983002,627.653015 
	C325.251312,625.698120 326.797668,622.114746 327.605408,618.289978 
	C329.652405,608.597229 333.420288,599.551758 337.520081,590.615601 
	C339.148529,587.066101 343.078278,585.577271 346.577789,587.109253 
	C349.698578,588.475586 348.222565,590.603638 347.338684,592.518677 
	C343.011322,601.894043 338.789154,611.306824 336.099579,621.320862 
	C335.585846,623.233521 334.775574,625.126953 336.276855,627.654480 
	C340.370880,626.302307 341.781494,622.815369 342.617981,619.213806 
	C343.755524,614.315918 344.961090,609.491943 347.753601,605.239685 
	C351.625397,599.343933 355.207520,597.775513 361.967194,599.294128 
	C363.984406,599.747314 365.507874,598.650757 367.284119,598.419922 
	C369.336365,598.153137 371.398926,598.020264 372.880615,599.654297 
	C374.469574,601.406799 372.943878,603.106079 372.300781,604.728943 
	C370.154877,610.144043 367.757629,615.474365 366.623657,621.228760 
	C366.250458,623.122559 365.441406,625.094055 367.061005,627.403564 
	C371.523804,625.344055 372.675568,621.173279 373.487640,617.067932 
	C374.475464,612.074341 376.017456,607.378784 379.180054,603.380310 
	C382.295563,599.441345 386.235138,597.122803 391.391937,599.068787 
	C393.407898,599.829529 394.955139,598.810486 396.702271,598.540100 
	C398.886627,598.202026 401.167664,597.816589 402.755005,599.704956 
	C404.180023,601.400208 402.815125,603.181702 402.262115,604.869141 
	C400.241638,611.034424 398.184235,617.187683 396.170319,623.355164 
	C395.677032,624.865784 394.825806,626.393555 395.970001,628.356750 
	C399.722260,626.727661 401.828339,623.989502 402.769135,620.273254 
	C403.462982,617.532593 403.921295,614.726868 404.720123,612.019653 
	C405.669769,608.801331 407.283905,605.884766 409.446136,603.290161 
	C412.429169,599.710632 416.069427,597.590881 420.833221,598.837341 
	C423.743622,599.598877 425.167358,601.950195 425.195068,604.866882 
	C425.242096,609.814270 422.914398,613.455505 418.505341,615.698608 
	C417.475708,616.222473 416.353302,616.692017 415.224091,616.866760 
	C412.379730,617.306946 411.287964,619.030945 411.240417,621.708862 
	C411.196014,624.212463 410.817566,626.914062 413.624512,628.271667 
	C416.139893,629.488281 418.434326,628.641052 420.623688,627.102905 
	C423.023132,625.417297 423.501373,621.956848 427.366364,620.164978 
	C425.860443,625.900818 423.663361,630.072693 418.689056,631.650208 
	C412.859985,633.498840 407.415588,632.758240 403.929779,626.913025 
	C396.960266,630.948853 390.509888,635.091309 389.417908,643.853760 
	C389.279358,644.965698 388.734070,646.113098 388.103241,647.062012 
	C385.876373,650.411743 382.831604,652.552734 378.830536,650.635742 
	C374.974762,648.788330 374.114288,645.291016 375.461792,641.289062 
	C376.272278,638.881958 377.436676,636.699463 379.867493,634.989075 
M390.198334,610.768311 
	C390.591705,608.736206 391.460724,606.658203 389.824432,604.725891 
	C383.490051,608.412659 379.629028,621.852600 383.799500,625.969299 
	C387.409576,621.780090 388.307587,616.484741 390.198334,610.768311 
M351.680176,619.078491 
	C351.381744,621.285217 350.514526,623.600098 352.689880,625.437439 
	C357.298950,621.882568 361.439301,609.224182 359.403290,604.073242 
	C354.700104,607.863220 353.173737,613.009583 351.680176,619.078491 
M419.299652,609.899658 
	C419.936890,608.681152 421.350464,607.547180 419.380188,605.695862 
	C417.473022,607.028198 415.469208,608.159668 415.568970,611.085388 
	C417.079346,611.859192 417.966919,611.096008 419.299652,609.899658 
z"/>
<path fill="#000000" opacity="1.000000" stroke="none" 
	d="
M235.991531,520.020020 
	C241.832352,514.168213 248.918793,511.460785 257.170563,511.764771 
	C260.510590,511.887817 262.942413,509.231262 266.119141,508.893494 
	C267.776184,508.717316 269.551086,508.433350 270.805450,509.850922 
	C272.210846,511.439209 269.789246,512.428650 270.030579,514.349243 
	C276.047668,517.277771 282.689606,520.259155 284.163391,528.071899 
	C285.717926,536.312561 281.369690,541.335693 274.029663,544.184814 
	C281.793976,555.692932 280.626373,564.485596 270.754883,570.771118 
	C266.785736,573.298462 262.438263,574.967468 257.831757,575.904907 
	C247.984253,577.908752 238.329895,578.254333 229.387375,572.512634 
	C226.216293,570.476562 223.697495,567.946167 222.418961,564.316040 
	C220.408234,558.606995 223.257675,553.740356 229.905304,552.032837 
	C231.689880,555.937134 233.185455,560.331970 238.274216,561.555908 
	C240.517700,548.846619 246.355408,537.628784 251.243011,525.294128 
	C246.272614,526.609253 244.046616,529.687500 242.143112,533.235901 
	C240.160812,536.931091 238.549637,536.967163 236.129578,533.594421 
	C233.094559,529.364502 234.294724,525.060059 235.927841,520.361755 
	C236.022797,519.986572 236.000031,520.006958 235.991531,520.020020 
M265.517670,524.615967 
	C263.148651,524.856079 262.862183,526.914001 262.293427,528.546936 
	C260.331543,534.180054 258.483032,539.853149 256.637726,545.526123 
	C254.863113,550.981689 252.836807,556.398010 253.155014,562.412903 
	C257.196472,563.123718 260.259521,561.439209 263.167908,559.566833 
	C265.922485,557.793457 267.851624,555.389893 267.719574,551.801636 
	C267.582367,548.072937 264.696167,546.960876 262.021942,545.644836 
	C260.739410,545.013733 258.831879,545.004822 258.890015,543.011475 
	C258.950653,540.930908 260.498169,539.815857 262.252472,539.110046 
	C263.317322,538.681580 264.509125,538.580811 265.608368,538.223511 
	C268.993225,537.123413 272.456787,535.908569 272.773804,531.644348 
	C273.111206,527.105835 269.481415,526.014832 265.517670,524.615967 
z"/>
<path fill="#000000" opacity="1.000000" stroke="none" 
	d="
M389.994507,542.038757 
	C391.680817,535.124023 392.828857,528.043762 395.270233,521.300537 
	C396.061310,519.115417 396.928986,516.934753 398.013550,514.885376 
	C399.260986,512.528320 400.688446,509.852478 403.846100,510.174835 
	C407.163635,510.513489 408.948151,513.109314 410.056122,516.031616 
	C412.197266,521.678955 410.106018,526.526001 406.777740,530.933289 
	C402.658997,536.387451 401.251648,542.562073 401.307007,549.212952 
	C401.319550,550.719238 401.283813,552.482056 402.946991,553.077209 
	C404.892273,553.773315 405.926483,552.113647 406.957397,550.821533 
	C408.451080,548.949341 409.039764,546.679260 409.669861,544.432983 
	C410.712402,540.716309 412.210175,537.205505 414.527679,534.096497 
	C419.418549,527.535339 423.680664,526.630066 430.515900,530.646912 
	C433.261871,525.940430 434.620483,525.695984 438.781647,529.159546 
	C444.116974,533.600525 444.936127,537.372925 441.934753,543.680115 
	C439.070770,549.698608 439.070770,549.698608 440.402344,553.496887 
	C446.046692,552.384949 446.019318,546.169678 449.420135,543.158447 
	C452.208527,543.846924 452.497406,545.745728 451.901672,547.826904 
	C450.109741,554.087280 446.875244,559.492310 441.420013,563.195312 
	C436.102448,566.804932 432.387665,565.722778 426.271484,559.136353 
	C423.755280,561.722290 421.302002,564.543640 417.449982,565.072144 
	C413.268921,565.645874 411.299316,562.465820 409.074951,559.793823 
	C406.671356,560.201355 405.574310,562.350403 403.711639,563.392761 
	C397.265320,567.000610 391.339783,564.655273 389.233490,557.587646 
	C387.734192,552.556641 388.983185,547.684875 389.946594,542.376587 
	C390.037048,541.976135 390.005859,542.016113 389.994507,542.038757 
M423.335693,552.542297 
	C426.633759,547.450806 429.882080,542.348511 427.484009,535.598450 
	C422.831543,538.288391 419.083679,547.585205 420.535370,551.870850 
	C420.913391,552.986755 421.627075,553.493225 423.335693,552.542297 
z"/>
<path fill="#000000" opacity="1.000000" stroke="none" 
	d="
M277.091248,631.323486 
	C269.512878,626.947998 268.545471,623.107300 272.866760,616.391296 
	C273.828125,614.897278 274.486023,613.207947 275.495605,611.183472 
	C279.071167,616.113281 274.971924,622.706177 280.082489,626.967468 
	C283.649902,617.706909 283.621918,606.763977 293.010468,600.495667 
	C292.150208,610.441650 288.128754,619.535522 285.150269,628.916687 
	C283.730774,633.387695 280.613403,632.388184 277.091248,631.323486 
z"/>
<path fill="#000000" opacity="1.000000" stroke="none" 
	d="
M309.481964,621.227539 
	C307.942200,622.206787 307.067596,621.499023 307.293060,620.396301 
	C308.173462,616.090454 309.425201,611.886658 312.247772,608.314148 
	C312.260437,612.729492 311.299622,616.901978 309.481964,621.227539 
z"/>
<path fill="#000000" opacity="1.000000" stroke="none" 
	d="
M270.709717,596.271667 
	C270.979919,595.148682 271.169769,594.372620 271.423584,593.334961 
	C273.453766,597.179199 273.095673,599.866638 269.354248,605.431335 
	C269.779266,602.493713 270.204315,599.556152 270.709717,596.271667 
z"/>
<path fill="#000000" opacity="1.000000" stroke="none" 
	d="
M371.236389,544.261963 
	C372.088501,542.570618 372.124664,540.622253 374.622467,540.427490 
	C375.308655,544.049561 373.943329,546.791016 371.616486,549.473389 
	C369.970337,547.713562 370.867249,546.133850 371.236389,544.261963 
z"/>
</svg>