<?xml version="1.0" encoding="utf-8"?>
<!-- Generator: Adobe Illustrator 26.1.0, SVG Export Plug-In . SVG Version: 6.00 Build 0)  -->
<svg version="1.1" id="Layer_1" xmlns="http://www.w3.org/2000/svg" xmlns:xlink="http://www.w3.org/1999/xlink" x="0px" y="0px"
	 viewBox="0 0 1600 2560" style="enable-background:new 0 0 1600 2560;" xml:space="preserve">
<style type="text/css">
	.st0{fill:#214D23;}
	.st1{opacity:0.3;}
	.st2{fill:#386B36;}
	.st3{opacity:0.5;}
	.st4{fill:#022508;}
	.st5{opacity:0.6;fill:#386B36;}
	.st6{fill:#2D5D2B;}
	.st7{fill:#6A4234;}
	.st8{opacity:0.5;fill:#6A4234;}
	.st9{fill:#845644;}
	.st10{opacity:0.4;fill:#6A4234;}
	.st11{fill:#BE7D6A;}
	.st12{opacity:0.3;fill:#381600;}
	.st13{fill:#95614D;}
	.st14{fill:#008143;}
	.st15{opacity:0.7;}
	.st16{fill:#469D47;}
	.st17{fill:#9EA8AA;}
	.st18{opacity:0.6;fill:#9EA8AA;}
	.st19{opacity:0.7;fill:#9EA8AA;}
	.st20{fill:#7E8B8C;}
	.st21{opacity:0.5;fill:#9EA8AA;}
	.st22{opacity:0.3;fill:#868F91;}
	.st23{fill:#8AAB3F;}
	.st24{fill:#859A23;}
	.st25{fill:#7EB039;}
	.st26{opacity:0.4;fill:#386B36;}
	.st27{opacity:0.4;fill:#2D5D2B;}
	.st28{opacity:0.7;fill:#386B36;}
	.st29{fill:#6F7A2B;}
	.st30{fill:#926229;}
	.st31{fill:#B4854E;}
	.st32{fill:#F4A20F;}
	.st33{fill:#DDA852;}
	.st34{fill:#4F2E21;}
	.st35{fill:none;stroke:#EAA183;stroke-width:0.5;stroke-miterlimit:10;}
	.st36{fill:#3D1200;}
	.st37{fill:none;}
	.st38{fill:#EAA183;}
</style>
<g>
	<g>
		<g>
			<path d="M818.09,808.15c1.63,0.76,3.39-0.15,5.01-0.83c0.48-0.36,1.06-0.71,0.13-1.22c0.67-3.04,0.83-5.82-3.2-6.44
				c0,0,0.01-0.02,0.01-0.02c-0.01,0-0.02,0-0.03,0c-0.69-1.38-3.43-0.91-2.93-3.36c-0.32-1.12-0.16-2.46-1.4-3.15
				c-1.1-1.95-1.31-6.03-4.86-2.11c-1.97-1.41-5.34,1.2-6.57-2.36c0.09-0.3,0.18-0.59,0.26-0.89c0,0,0,0,0,0
				c3.08-0.07,4.85-2.56,4.44-4.78c-0.86-4.69,1.92-2.96,3.36-2.17c1.85,1.01,3.24,2.21,4.65-0.34c0.83-0.66,0.96-1.55,0.79-2.53
				c0,0,0,0,0,0c0.13-0.3,0.23-0.62,0.31-0.94c-0.39-2.76,1.35-6.38-3.1-7.53c-0.55-0.14-2.15-1.07-1.38-2.34
				c0.95-1.56,2.12,0.55,3.24,0.11c-2.21-3.2-2.56-6.98-3.18-10.67c-1.05,0.05-2.1,0.09-3.15,0.14c-0.63-0.83-1.27-1.66-1.9-2.49
				c0,0,0,0,0,0c0,0,0,0,0,0c-0.36-1.56-3.61-0.56-2.74-3.06c1.06-3.06-1.29-4.03-2.94-5.47l0,0c0,0,0,0,0,0
				c0.22-0.26,0.36-0.55,0.42-0.88c0,0,0,0,0,0c0,0,0,0,0,0c3.04-2.8,2.23-5.2-0.79-7.28c-1.86-1.29-4.18-2.57-4.63-4.71
				c-1.19-5.64-3.59-9.76-9.61-10.73l0.11,0.02c3.11-2.55,2.92-6.16,2.99-9.68c-2.77-2.34-5.52,0.29-8.29,0.04
				c-1.27-0.31-2.53-0.62-3.8-0.94c-0.15-0.07-0.32-0.12-0.54-0.13c0,0,0,0,0,0c0,0,0,0,0,0c0,0,0,0,0,0
				c-0.28-0.04-0.55-0.02-0.82,0.06c-1.84-0.02-1.78-1.11-1.32-2.43c0,0,0,0,0,0c0,0,0,0,0,0c1.48-2.58,1.52-5.27-0.56-7.34
				c-2.05-2.04-4.27-0.68-6.04,0.87c-1.76,1.54-1.87-0.6-2.73-1.06c0,0,0,0,0,0c-3.59-3.77-7.24-7.49-8.77-12.73c0,0,0,0,0,0
				c0,0,0,0,0,0c1.79-2.85,1.84-5.74,0.21-8.67c-2.79-5.13-5.61-1.52-8.42-0.02c-0.34-0.37-0.68-0.73-1.01-1.1
				c-0.7-4.24-2.97-4.38-6.36-2.87c-2.3,1.03-3.3,2.93-4.45,4.87c0,0,0,0,0,0c-1.11,0.09-2.26,0.3-3.03-0.86c0,0,0,0,0,0
				c0,0,0,0,0,0c-1.9-4.34-0.33-10.87-7.28-12.04c0,0,0,0,0,0c-0.96-1.55-2.15-2.08-4.01-1.48c-6.77,2.19-13.71,0.78-20.57,0.67
				c-3.6-0.06-7.86-3.21-9.27,3.12c0,0,0,0,0,0c-2.78,0.62-5.54-1.53-8.32-0.07c-0.63-6.54-2.28-7.51-7.39-4.34
				c-0.64-6.91-7.38-11.87-15.98-11.74c-0.37,0.69-0.73,1.37-1.1,2.06l0,0c-0.4,0.37-0.8,0.75-1.2,1.12c0,0,0,0,0,0
				c-0.97,0.76-1.94,0.65-2.91,0c0,0,0,0,0,0c-1.12-2.09-0.6-6.01-4.46-5.22c-5.88,1.21-9.03-3.9-13.65-5.51
				c-0.65-2.96-1.87-4.33-5.4-3.92c-6.44,0.74-8.07,8.44-14.52,9.51c-2.08,0.35-4.49,2.69-7.3,2.81c0,0,0,0,0,0
				c-0.54-1.9-1.7-3.25-3.45-4.08c0,0,0,0,0,0l0,0c0.38-2.16,0.77-4.32,1.15-6.48c0.02-4.5-2.61-7.61-6.26-6.92
				c-1.72,0.33-2.81,0.06-4.26-0.87c-3.66-2.34-7.38-2.96-10.03,1.56c-0.96,1.63-2.15,2.15-3.84,2.01c0,0,0,0,0,0c0,0,0,0,0,0
				c0,0-0.03-0.04-0.03-0.04c0,0,0,0,0,0c-2.17-2.24-4.64-1.97-7.2-0.87c-0.42,1.32-0.84,2.64-1.25,3.97l0,0c0,0,0,0,0,0
				c-0.52,1.25-1.04,2.5-1.67,4.02c-1.19-1.14-2.52-2.07-3.42-3.31c-3.11-4.31-6.51-3.26-10.07-0.8c-0.96,0.66-1.52,2.38-2.91,1.79
				c-1.65-0.69-1.21-2.6-0.92-3.78c1.03-4.26-4.04-4.66-4.52-7.87c-2.14,1.67-5.54-0.06-7.28,2.84c-0.27,0.45-1.22,0.47-1.86,0.68
				c-1.64-2.22-3.72-1.51-5.72-0.78c-1.16,0.42-2.38,1.35-3.46,0.4c-3.89-3.4-7.37-3.38-11.02,0.5c-2.21,2.36-5.97-0.34-8.37,2.08
				c-0.47,0.23-1,0.75-1.4,0.66c-4.95-1.04-8.15,0.48-9.92,5.67c-0.64,1.87-2.89,3.88-5.52,2.92c-4.18-1.52-7.45,0.05-10.57,2.62
				c-1.85,4.03-2.48,8.92-7.39,10.78c-0.79,2.44-1.58,4.88-2.37,7.32c0.14,0.14,0.29,0.22,0.45,0.29c-0.02,0.02-0.03,0.04-0.05,0.06
				c-0.14-0.11-0.27-0.22-0.4-0.34c-2.46,0.01-4.96-4.19-7.38,0.08c0,0,0,0,0,0c-4.81,2.98-1.72,9.36-5.34,12.85
				c-0.48,0.19-1.19,0.7-1.4,0.54c-6.48-4.98-11.99-2.45-13.21,6.1c0,0,0,0,0,0c-0.86,0.1-2.34-0.04-2.49,0.35
				c-2.08,5.32-7.61,4.11-11.27,6.34c-0.65,0.01-1.3,0.02-1.95,0.03c-3.83,2.12-3.12,6.17-3.56,9.86c-2.16-0.96-3.68-1.89-5.85-2.19
				c-3.25-0.44-6.44,0.81-9.68-0.43c-5.94-2.27-8.69-0.18-9.34,6.57c0,0,0,0,0,0c0.37,2.13-1.94,4.28,0.04,6.4l0,0
				c-0.57,1.88,0.4,2.75,2.01,3.19c-0.07,0.39-0.13,0.79-0.2,1.18c0,0,0,0,0,0c0,0,0,0,0,0c-0.85,0.81-3.64,2-0.57,2.66
				c3.95,0.85,1.54,1.73,0.7,3.19c-0.93,1.61-3.37,0.99-3.83,3.03c0,0,0,0,0.01,0c0,0,0,0,0,0c-7.72,2.42-8.55,4.21-4.9,10.53
				c0,0,0,0,0,0c0.38,1.88-0.15,3.69-2.2,3.01c-5.3-1.77-9.12-1.05-14.41,2.1c-3.93,2.35-5.03,3.95-5.26,7.67
				c-1.16,0.73-2.26,1.96-3.49,2.11c-4.87,0.59-4.4,3.52-3.12,6.81c0.56,1.44,1.47,2.74,2.23,4.1c-0.01,0.68-0.02,1.35-0.04,2.03
				c-0.34,0.34-0.69,0.68-1.03,1.02c-2.43-1.35-4.81-2.43-6.39,1.14c0,0,0,0,0,0c-1.42,2.55-1.09,5.06,0.14,7.56c0,0,0,0,0,0
				c0,0,0,0,0,0c-0.69,0.64-1.38,1.28-2.06,1.92c0,0,0,0,0,0c-1.78,2.4-1.04,5.13-0.98,7.77c0.93,0.78,1.86,1.56,2.8,2.34h0l0,0
				c0.47,0.3,0.94,0.6,1.41,0.91c2.27,0.57,3.39-1.45,4.96-2.38c2.07-1.22,3.63-0.98,4.92,0.78c-0.67,1.05,0.42,2.14,0.56,3.21
				c-0.22-0.15-0.43-0.3-0.65-0.48c-3.44-0.17-4.65,1.07-2.64,4.34c1.35,2.62,3.81,3.09,6.34,3.42c0,0,0,0,0,0h0
				c-2.14,1.7-5.14,2.88-3.9,6.64c1.18,3.58,0.13,5.05-3.68,4.38c-0.54-0.1-1.29,1.02-1.94,1.58c0,0,0,0,0,0
				c-2.06,0.82-3.85,2.41-6.24,2.31l0,0c-0.39-0.33-1.17-0.84-1.12-0.95c2.11-4.58-1.62-5.98-4.16-8.03c0.17-4.02-2.7-3.9-5.36-4.09
				c-1.52-0.11-2.84,1.17-4.55,0.3c-3.56-1.83-5.32,0.69-7.19,3.26c-2.64,3.63,0.56,6.29,1.17,9.38l0,0
				c-1.52,1.24-0.83,2.75-0.68,4.31c0.41,4.1-4.77,8.6-8.47,7.51c-2.68,0.78-3.27,3.19-4.1,5.43c0.87,1.85,1.73,3.71,2.6,5.56
				c0,0,0,0,0,0c0.13,0.62,0.26,1.24,0.39,1.84c0,0.01,0,0.01,0,0.01c0,0,0,0,0,0c-1.1-0.77-2.24-1.43-2.28,0.78
				c-0.02,1.56,0.18,3.13,0.29,4.7c3.52-1.02,5.09,3.32,8.31,3.14c0,0,0,0,0,0c1.33-0.88,2.23-0.24,3,0.89
				c0.02,4.8,0.04,9.59,0.05,14.38c0,0,0,0,0,0c0,0,0,0,0,0c-0.21,1.08,0.13,2.39-1.15,3.05c-1.04,1.46-2.07,2.92-3.11,4.38
				c-0.01,1.5-0.02,3-0.03,4.5c2.11,1.97,4.15,4.19,7.41,2.24c0.37-0.44,0.74-0.88,1.11-1.31c2.73-0.91,8.04,2.64,7.28-4.35
				c3.33,0.05,6.8-0.53,9.55,2.18l0,0l0,0c0,0.35-0.01,0.69-0.01,1.04l0,0c-2.13,0.57-1.69,3.05-3.02,4.22
				c-0.59-1.64-1.21-3.89-3.23-3.35c-1.95,0.53-0.59,2.31-0.12,3.55c0,0,0,0,0,0c0,0,0,0,0,0c-0.72,1.38-1.44,2.76-2.16,4.15
				c0,0,0,0,0,0c-0.32,0.01-0.64,0.02-0.97,0c-1.43,2.75-5.12,4.89-2.26,8.78c0.42-0.02,0.83-0.04,1.24-0.06
				c0.81,1.81,2.13,2.97,4.07,3.35c2.59-2.1,3.57-6.12,7.51-6.62c2.74,0.04,3.17,2.47,4.23,4.25c1.04,0.31,2.09,0.61,3.13,0.92
				c0.63-0.53,0.81-1.24,0.75-2.04c0-0.01-0.01-0.02-0.01-0.03c3.8-0.69,5.36-3.13,4.42-7.13c-0.55-2.33,0.44-4.5,0.14-6.75
				c0,0,0,0,0,0c0,0,0,0,0,0c2.19-1.46,3.94-0.61,5.53,1.1c0,0,0,0,0,0c0,0,0,0,0,0c-1.24,2.97-0.5,5.01,2.1,6.19
				c-1.33,0.92-2.75,2.01-0.92,3.56c1.99,1.69,2.79,3.74,1.63,5.44c-1.5,2.2-3.34-0.54-5.1-0.76c-2.81-0.36-6.08-2.02-7.08,2.64
				c0.86,4.58,4.75,2.32,6.94,2.56c1.88,0.2,2.95,0.64,3.65,1.76c-0.22,0.47-0.4,0.96-0.54,1.48c0.11,1.09,0.32,2.13,1.29,2.81
				c1.55-1.1,0.15-5.28,4-3.97c1.4,0.74,3.27,0.55,4.24,2.17c2.34,3.04,4.54,5.87,8.07,1.07c1.86-2.54,3.7-0.43,5.38,0.77
				c3,1.23,2.95,6.03,6.93,6.12c3.69-1.83,3.81-4.21,0.97-6.95c-0.78-0.75-1.89-1.47-1.28-2.6c1.58-2.95,0.26-6.18,0.85-9.73
				c1.48,3.16,4.17,4.95,4.04,8.37c-0.04,1.17,1.17,2.02,2.72,1.66c4.74-1.1,4.75-1.06,3.58,3.8c-0.21,0.87-0.3,1.75-0.18,2.64
				c0.28,4.81,3.51,5.75,7.39,5.84c1.95,0.31,0.96-2.32,3.07-2.8c3.25-0.74,6.07-3.93,6.64-7.15c0.73-4.13-3.53-4.56-6.35-5.77
				c-0.33-0.14-0.4-0.58-0.35-0.96c1.88,1.27,4.09,0.79,6.14,1.21c2.06,0.42,4.25-0.1,6.23,0.91c0.39,0.25,0.79,0.48,1.23,0.66
				c0.65,0.21,1.29,0.23,1.95,0.07c2.55,2.09,5.17,4.03,8.68,3.97c9.22,0.58,9.22,0.58,10.36-5.12c0.03-0.14,0.05-0.29,0.06-0.45
				c-0.34-0.01-0.68-0.02-1,0.01c-0.12-1.21-0.64-3.04,0.48-3.38c1.52-0.45,2.77,1.06,3.83,2.25c-0.51,0.73-1.13,0.99-1.8,1.09
				c-2.14,2.55-2.21,6.04-3.58,8.96c-0.83,1.78-0.49,3.9,2.27,4.14l-0.04-0.04c1.66-1.42,4.54,3.27,4.41,0.22
				c-0.14-3.36,2.94-3.42,3.14-5.66c0,0,0,0,0,0c1.44-1.22,2.84-0.84,4.25,0.07c1.88,1.21,3.23,0.79,3.98-1.39c0,0,0,0,0,0
				c0.99-1.03,1.37-3.97,3.59-1.04c0.53,0.7,1.73,0.87,2.62,1.29c0,0,0,0,0,0c0.03,1.45-0.03,3.15,1.51,3.71
				c1.64,0.59,2.75-1.23,3.22-2.15c2.01-3.95,3.82-3.16,6.21-0.42c0.66,0.76,2.73,0.56,4.6-0.05c0.41,1.05,0.8,2.1,1.21,3.15
				c0.45,2.23,0.9,4.45,1.35,6.68c0.59,2.91,0.63,7.15,2.95,9.32c1.73,1.62,4.48,2.25,7.01,2.81c3.67,2.19,8.28,3.32,13.12,4.08
				c1.45,0.5,2.89,0.99,4.33,1.52c0.22,0.08,0.43,0.12,0.64,0.15c3.38,1.35,6.99,1.93,10.52,2.9c0.96,0.26,1.84,0.6,2.65,0.98
				c1.51,3.71,4.11,6.7,7.28,9.17c0.13,0.22,0.27,0.44,0.41,0.66c2.15,5.5,3.96,10.94,5.35,16.48c0.13,1.06,0.26,2.1,0.42,3.11
				c0.36,2.27,0.77,4.52,1.25,6.76c-0.04,6.17,0.08,12.33,0.34,18.49c0.45,1.31,0.88,2.64,1.23,3.99c2.03,4.95,4.8,9.52,6.4,14.66
				c0.06,0.09,0.13,0.17,0.18,0.27c1.22,2.52,1.64,5.59,1.88,8.68c0.88,4.82,2.02,9.56,3.47,14.23c0.12,0.96,0.22,1.92,0.32,2.88
				c0.4,3.14,0.47,6.27,0.48,9.46c0,0.55-0.1,1.03-0.28,1.43c-0.02,2.75-0.12,5.51-0.24,8.26c0.14,3.54,0.53,7.11,1.19,10.63
				c0.07,0.12,0.15,0.24,0.21,0.37c0.04,0.08,0.07,0.16,0.1,0.23c1.45,0.57,2.86,1.23,4.25,1.93c1.93,0.1,3.94,0.13,5.87-0.02
				c13.22,0.74,26.45,0.77,39.69,0.11c0.6-0.41,1.18-0.87,1.72-1.36c0.42-0.56,0.83-1.12,1.24-1.68c0.12-0.84,0.23-1.69,0.35-2.53
				c0.05-2.84,0.16-5.67,0.34-8.49c-2.39-21.8-1.66-44.12,4.02-65.25c0.64-2.39,1.57-4.61,2.65-6.75
				c1.75-5.42,4.43-10.25,8.08-14.56c0.5-0.11,0.99-0.22,1.49-0.34c1.16-0.79,2.51-1.38,4.25-1.97c5.91-2.01,9.99-4.62,14.35-9.02
				c1.04-1.05,2.07-2.02,3.16-2.88c0.91-1.35,1.74-2.8,2.48-4.39c3.19-6.9,5.76-14.19,8.32-21.43c2.37-2.66,4.82-5.22,7.36-7.71
				c1.37-0.84,2.78-1.61,4.25-2.3c4.47-2.08,9.27-3.25,13.14-6.5c3.06-2.56,5.18-5.87,6.8-9.48c0.46-0.3,0.85-0.76,1.1-1.4
				c2.23-5.94,4.46-11.88,6.68-17.82c0.69-1.54,1.38-3.08,2.03-4.64c0.32-0.76,0.25-1.6-0.06-2.33c2.32,1.47,4.57,2.96,2.87,6.73
				c-1.28,4.62-4.78,8.72-3.14,14.02c0.33,0.35,0.66,0.7,0.98,1.04c-2.47,2.62,0.89,4.24,1.06,6.41c0.35-0.38,0.7-0.75,1.06-1.13
				c0,0,0,0,0,0c0,0,0,0,0,0c0.31,1.18-0.07,3.14,2.24,2.08c0.3,0.14,0.61,0.29,0.91,0.43c0,0,0,0,0,0c0,0,0,0,0,0
				c1,3.44,2.89,4.96,6.36,3.04c5.06,1.39,3.38-3.11,4.41-5.24c0,0,0,0,0,0c1.85,0.07,3.09,0.73,2.52,2.92
				c-0.33,1.25,0.02,2.62,1.25,2c4.83-2.43,10.52,0.19,15.15-2.94c-0.88-0.47-1.08-1.3-1.15-2.2c1.97-2.37-4.62-2.16-1.5-3.65
				c3.36-1.6,2.34-3.79,2.57-6.04c-1.07-0.72-2.13-1.44-3.2-2.16c0.17-5.34,4.68-2.35,5.15-1.75c3.58,4.7,9.25,1.83,13.91,5.71
				c-0.84-3.04-2.82-4.01-2.26-5.95c0,0,0,0,0,0c0,0,0,0,0,0c1.67-4.63,3.49-0.26,5.24-0.09c0,0,0,0,0,0
				c0.36,2.49,2.09,3.59,4.21,4.27c0,0,0,0,0,0c0.02,0.64,0.04,1.27,0.06,1.91c-1.31-0.23-2.62-0.47-3.94-0.7
				c3.35,1.47-2.4,5.44,1.75,6.45c0,0,0,0,0,0c0,0,0.06,0.03,0.06,0.03c1.78,0.95,2.04,2.68,2.31,4.46c0.21,1.35,4.46,5.6,4.53,5.26
				c0.7-3.43,5.57-2.86,5.94-6.52c2.04,1.23,4.49-0.66,6.49,0.89c0-0.69,0-1.39,0-2.08c0,0,0,0,0,0c0.96-0.47,1.93-0.93,2.9-1.39
				c0.05-0.59,0.09-1.18,0.14-1.77c0,0,0,0,0,0c0,0,0,0,0,0c0.02-0.75,0.03-1.5,0.05-2.25c0,0,0,0,0,0
				c-1.76-2.9-3.52-5.79-5.28-8.69h0c0,0,0,0,0,0c-2.4-3.1,0.32-3.98,2.19-5.23l0,0c0,0,0,0,0,0l0.48-0.03l0.48,0
				c1.08-0.03,2.16-0.06,3.23-0.09c0,0,0,0,0,0c0,0,0,0,0,0c2.81,1.98,5.86,1.21,8.33-0.17c1.83-1.02-0.41-2.67-0.84-4.04
				c0,0,0,0,0,0c1.7,0.35,3.41,0.7,5.11,1.06c0.75-1.08,1.51-2.16,2.26-3.24c0.02-2.35-0.08-4.55-2.66-5.73
				c-1.68-0.77-1.75-2.45-1.53-4.1c-0.86-1.7-3.14-4.16-2.13-5.05c3.05-2.67-0.32-4.45-0.18-6.58c0.02-0.68,0.03-1.36,0.05-2.04
				c2.87,0.74,4.46-0.05,4.81-3.37c0.21-2.01,0.81-4.34,3.63-4.45c1.31-2.49,1.66-4.99,0.06-7.5c-1.43,0-2.85-0.01-4.28-0.01
				c-2.18,0.28-2.65-0.44-2.8-2.87c-0.33-5.22-2.66-6.38-7.64-4.63c-1.92,0.72-2.23,2.16-1.71,3.98c0.14,0.21,0.29,0.38,0.45,0.54
				c-0.68,1.38-1.37,2.77-2.05,4.15c-0.91-0.07-1.78-0.21-2.24-1.17c0,0,0,0,0,0c1.04-2.99-0.89-5.11-2.1-7.44c0,0,0,0,0,0
				c0.96-2.72-1.91-4.19-2.05-6.55c0,0,0,0,0,0c2.79-8.26,1.78-10.76-5.44-14.23c-1.59-0.76-3.77-1.65-2.09-4.27
				c2.44-0.61,4.49,1.22,6.77,1.56c0.17,0.26,0.33,0.51,0.49,0.78c0.78,2.98,1.91,5.8,4.28,7.85c2.23,1.93,3.16,6.79,6.08,5.94
				c3.22-0.93,3.63-5.63,4.94-8.86c0.06-0.15-0.03-0.35-0.05-0.53C812.91,809.08,813.12,805.83,818.09,808.15z M745.36,853.26
				c-0.07,0.41-0.01,0.7,0.15,0.9c-0.16-0.19-0.31-0.37-0.47-0.56c0.07,0,0.12,0.01,0.19,0c0.03-0.18,0.07-0.35,0.11-0.51
				C745.35,853.15,745.35,853.2,745.36,853.26z M724.92,869.34c-0.96-2.97-2.94-3.88-5.68-3.23c-0.14-0.79-0.48-1.45-1.04-1.98
				c2.69-0.38,5.4-0.41,8.11-0.46c1.2-0.02,2.2,0.48,2.48,1.51c0.57,2.11-1.72-0.16-2.09,1.28c-0.23,0.9-0.95,1.68-0.71,2.72
				C725.62,869.16,725.27,869.21,724.92,869.34z M672.11,867.4C672.11,867.4,672.11,867.4,672.11,867.4c0.79-1.06,1.5-2.15,1.9-3.35
				c0.16,1.76,0.49,3.51,0.8,5.26c0.66,3.73,2.48,4.85,5.93,3.39c0.88-0.37,1.77-1.22,3.29-0.35c-1.06,2.39-1.89,4.84-2.58,7.35
				c-1.21-1.41-3.91-1.43-4.6,0.92c-0.15,0.49-0.28,0.99-0.42,1.48c-3.33-1.84-2.46-5.28-2.46-8.38
				C673.97,871.32,673.5,869.28,672.11,867.4z M588.66,862.09c-4.05,0.32-4.44,0.35-5.1-2.34c0.08-0.29,0.04-0.61-0.23-0.95
				c1.54-1.19,2.19,1.44,4.15,0.72C591.49,858.07,588.72,860.95,588.66,862.09z M577.06,652.07c0.01,0,0.02,0.01,0.03,0.01
				c0,0,0,0.01-0.01,0.01C577.08,652.09,577.07,652.08,577.06,652.07C577.06,652.08,577.06,652.07,577.06,652.07z M481.89,673.62
				C481.89,673.62,481.89,673.62,481.89,673.62c-0.06,0.05-0.12,0.11-0.18,0.16c0-0.05,0.01-0.11,0.01-0.16
				C481.78,673.62,481.84,673.62,481.89,673.62z M614.59,663.8c4.19,1.21,8.25,3.09,12.38,0.24c-0.04-0.04-0.07-0.06-0.11-0.1
				c0-0.53,0-1.06,0.01-1.59c1.12-0.03,2.18,0.05,2.18,1.95c0.32,0.97,0.84,1.81,1.6,2.48c0.55,0.41,1.37,1.11,1.78,0.8
				c2.78-2.1,1.74,0.68,2.12,1.6c-1.64-0.48-3,0.67-4.48,1.13c-1,0.77-2.69,1.06-4.57,1.1c-0.96-1.85-2.3-3.68-4.05-2.57
				c-2.93,1.87-3.51,0.97-4.34-1.52c-0.34-1.01-0.9-2.17-2.16-1.81c-0.43,0.12-0.65,0.37-0.77,0.67
				C613.96,665.41,613.94,664.62,614.59,663.8z M778.87,723.16c0.01,0.01,0.01,0.01,0.02,0.02c0.01,0.02,0.02,0.04,0.03,0.07
				c-0.23,0.05-0.46,0.08-0.69,0.11c0.18-0.1,0.36-0.16,0.54-0.2C778.81,723.15,778.84,723.15,778.87,723.16z M640.42,681.18
				c0.01,0.01,0.01,0.02,0.02,0.03c-0.01,0-0.02,0-0.03,0c0,0,0,0,0,0l0,0c0,0,0-0.01,0-0.01
				C640.42,681.2,640.42,681.19,640.42,681.18z M381.12,830.86c-0.44-0.33,0.14-0.29,0.25-0.02c-0.07,0.02-0.13,0.05-0.2,0.07
				C381.15,830.89,381.15,830.87,381.12,830.86z M436.48,791.16c0.62,0.26,1.23,0.52,1.85,0.78c-0.67,0.46-1.14,1.01-1.01,1.85
				c-0.91-0.41-1.88-0.22-2.85-0.11c-1.72,0.04-2.68-1.09-3.57-2.35c-0.53-0.79-0.82-1.76-1.52-2.43c1.73-0.29,1.57-1.63,1.3-3.04
				c-0.21-0.25-0.43-0.49-0.66-0.72c0.31-1.3,1.52-1.55,2.5-2.08c0.19,0.01,0.39,0.02,0.59,0c0.15-0.04,0.29-0.11,0.42-0.18
				c0,0.01,0,0.02,0.01,0.03c1.13,1.96,4.4,1.24,5.35,3.42c-1.08-0.54-2.21-0.86-3.46-0.62
				C434.71,787.74,437.18,789.13,436.48,791.16z M416.5,795.15c-0.01-0.01-0.01-0.03-0.02-0.05c0.04-0.01,0.07-0.02,0.1-0.03
				C416.56,795.1,416.53,795.13,416.5,795.15z M676.59,777.82C676.59,777.82,676.59,777.82,676.59,777.82
				C676.59,777.82,676.59,777.82,676.59,777.82c-0.75-1.41-1.51-2.82-2.26-4.23c0,0,0,0,0,0c-0.02-2.18-0.04-4.36-0.05-6.54
				C676.58,770.27,679.62,773.32,676.59,777.82z M672.26,765.1c-0.01,0-0.01-0.01-0.02-0.01c0.18-0.09,0.34-0.15,0.47-0.19
				C672.57,764.97,672.42,765.04,672.26,765.1z M584.49,755.27c-0.03,0.09-0.06,0.16-0.12,0.23c0,0,0,0,0,0c0,0,0,0,0,0
				c-0.31-0.21-0.52-0.5-0.67-0.85C583.97,754.85,584.23,755.05,584.49,755.27z M586.15,752.12c0.09-0.02,0.2-0.03,0.31-0.04
				c0.03,0.04,0.06,0.09,0.09,0.13C586.4,752.17,586.28,752.14,586.15,752.12z M665.81,754.39c0,0-0.02-0.01-0.03-0.01
				c0,0,0-0.01,0-0.01c0.01-0.01,0.01-0.02,0.02-0.03C665.8,754.36,665.81,754.38,665.81,754.39L665.81,754.39
				C665.81,754.39,665.81,754.39,665.81,754.39z M554.63,733.68c0.01,0.03,0.02,0.07,0.03,0.11c-0.04,0-0.07,0-0.1,0
				C554.58,733.75,554.6,733.72,554.63,733.68z M558.04,729.48c0,0.01,0.01,0.03,0.01,0.04c-0.02,0.01-0.05,0.01-0.07,0.01
				C558.01,729.52,558.02,729.5,558.04,729.48z M553.76,734.97c-0.01,0.12-0.02,0.23-0.03,0.34c-0.07,0-0.15,0-0.22,0
				C553.59,735.2,553.68,735.1,553.76,734.97z M652.08,762.97c4.6-1.25,2.23-3.51,0.78-5.63c-0.24-0.19-0.47-0.36-0.7-0.54
				c0-0.07-0.02-0.13-0.02-0.2l0,0c0,0,0,0,0,0c0.73-0.03,1.46-0.06,2.19-0.09c0.54,1.66,1.23,3.28,1.56,4.98
				c0.36,1.81,1.26,4.57-0.54,5.23C653,767.59,653.12,764.36,652.08,762.97z M601.53,728.66c-0.05,0.06-0.11,0.12-0.18,0.18
				c-0.05-0.04-0.09-0.08-0.14-0.13C601.33,728.69,601.43,728.67,601.53,728.66z M521.07,768.32
				C521.07,768.32,521.07,768.31,521.07,768.32C521.07,768.31,521.07,768.31,521.07,768.32c0.01,0.04,0.01,0.07,0.01,0.11
				c-0.04-0.02-0.07-0.03-0.11-0.04C521,768.36,521.03,768.34,521.07,768.32z M535.99,746.85c-0.05,0-0.1,0-0.16,0
				c0.1-0.1,0.2-0.16,0.31-0.25C536.09,746.69,536.04,746.76,535.99,746.85z M658.44,775.04c1.51,0.73,3.64,0.99,4,3.32
				c0.21,1.34-0.76,1.98-1.91,1.66c-1.92-0.52-3.3-1.95-3.92-3.79C656.26,775.21,657.32,774.88,658.44,775.04z M747.21,769.53
				c0,0.01-0.01,0.02-0.01,0.03c0,0-0.01,0-0.01,0C747.19,769.55,747.2,769.54,747.21,769.53z M660.16,714.92
				c0.01-0.02,0.01-0.04,0.02-0.06c-0.01-0.09-0.03-0.18-0.05-0.27c0.53,0.07,0.81,0.29,0.94,0.59
				C660.79,715.15,660.49,715.08,660.16,714.92z M585.46,721.16c0-0.04,0-0.09,0-0.13c0.04,0.03,0.07,0.05,0.11,0.08
				C585.53,721.12,585.49,721.14,585.46,721.16z M585.45,721.01C585.44,721.01,585.44,721.01,585.45,721.01
				C585.44,721.01,585.44,721.01,585.45,721.01C585.44,721.01,585.45,721.01,585.45,721.01z M560.2,742.73
				c-0.01-0.05-0.01-0.1-0.02-0.15c0.06,0.05,0.12,0.09,0.19,0.14C560.32,742.72,560.26,742.73,560.2,742.73z M676.33,800.61
				c0,0.02,0,0.05,0,0.07c-0.03,0-0.06,0.01-0.1,0.01C676.27,800.67,676.3,800.64,676.33,800.61z M687.83,792.05
				c0.02-0.03,0.04-0.06,0.07-0.09c0,0.04-0.01,0.09-0.01,0.13c0,0,0,0,0,0c0,0,0,0,0,0C687.86,792.08,687.85,792.07,687.83,792.05z
				 M737.67,786.66C737.67,786.66,737.67,786.66,737.67,786.66c0.02,0.02,0.03,0.03,0.04,0.05c-0.02,0-0.03-0.01-0.04-0.01
				C737.67,786.69,737.67,786.68,737.67,786.66z M716.36,744.32c0,0.14,0.01,0.29,0,0.43c0,0,0,0,0,0c-0.22-0.1-0.38-0.23-0.51-0.37
				C716.02,744.36,716.19,744.34,716.36,744.32z M678.28,806.33c0.04,0,0.08,0,0.12-0.01c-0.02,0.02-0.05,0.04-0.07,0.07
				C678.32,806.37,678.3,806.35,678.28,806.33z M740.81,745.2c-1.85,6.14,2.68,1.66,3.98,2.4c-0.02,0.04-0.05,0.07-0.08,0.11
				c-0.23,1.85-1.69,3.63-0.77,5.53c-0.64,0.39-1.28,0.77-1.93,1.15c-0.02-0.07-0.06-0.13-0.07-0.21c-1.74-0.54-3.46-0.11-5.19,0.1
				c-0.26-1.04,0.25-2.39-1.19-2.93c-3.11-1.23-4.61-4.08-6.43-6.61c0.76-1.32,1.99-1.04,3.16-0.97c0,0,0,0,0,0c0,0,0,0,0,0
				c1.45,2.51,3.1,3.84,5.81,1.43C738.82,744.56,740.95,744.74,740.81,745.2z M701.44,738.04c0.07,0.12,0.13,0.25,0.17,0.38
				C701.55,738.29,701.49,738.17,701.44,738.04z M455.56,753.9c-4.56-2.37-5.53-2.82-6.7-0.19c-0.34-1.49-1.15-2.82-2.2-4.06
				c-0.03-0.03-0.06-0.05-0.09-0.08c1.62-1.74,2.16-5.1,5.76-3.9h0c0,0,0,0,0,0c2.09,1.89,4.19,3.79,6.28,5.68c0,0,0,0,0,0
				c0,0,0,0,0,0c-0.91,0.96-2.3,1.42-3,2.61C455.6,753.95,455.58,753.92,455.56,753.9z M460.81,752.12
				c-0.02,0.02-0.04,0.04-0.06,0.05c0.02-0.05,0.04-0.1,0.07-0.16c0.01,0.01,0.02,0.02,0.03,0.04
				C460.83,752.08,460.82,752.1,460.81,752.12z M472.35,743.64C472.35,743.64,472.35,743.64,472.35,743.64
				C472.35,743.64,472.35,743.64,472.35,743.64c0,0,0.01,0.03,0.02,0.07c0,0,0,0,0,0C472.36,743.68,472.36,743.66,472.35,743.64z
				 M496.64,755.25c-1.44,0.14-2.93-0.05-4.49-0.71C493.57,755.02,495.12,755.26,496.64,755.25z M541.45,802.61
				c-0.12,0.05-0.25,0.09-0.37,0.16c0,0,0,0,0,0c0,0,0,0,0,0c0.02-0.14,0.04-0.28,0.06-0.42
				C541.25,802.44,541.35,802.53,541.45,802.61z M739.31,742.33c0.05-0.09,0.08-0.17,0.13-0.26c0.03,0.07,0.05,0.14,0.07,0.21
				C739.45,742.3,739.38,742.32,739.31,742.33z M712.32,726.4c0-0.02-0.01-0.04-0.01-0.06c0.03,0,0.06,0,0.09,0
				C712.37,726.36,712.35,726.38,712.32,726.4z M579.66,688.99c0.16-0.11,0.32-0.22,0.46-0.35c0,0,0,0,0,0c0,0,0,0,0,0
				c0,0.11,0,0.22-0.01,0.33C579.97,688.98,579.81,688.98,579.66,688.99z M590.7,793.16c0.05-0.09,0.09-0.17,0.13-0.27
				c0.1,0.09,0.18,0.18,0.27,0.28C590.97,793.15,590.83,793.16,590.7,793.16z M660.49,816.61c0.01,0,0.01,0,0.02,0.01c0,0,0,0,0,0
				c0,0,0,0,0,0c-0.01,0.01-0.02,0.02-0.04,0.03C660.47,816.64,660.48,816.62,660.49,816.61z M741.88,806.07
				c0.03-0.01,0.06-0.01,0.1-0.02c0,0.03,0,0.06,0.01,0.09C741.94,806.11,741.91,806.09,741.88,806.07z M714.23,699.75
				c-0.05-0.01-0.1-0.03-0.15-0.04c0.04,0.01,0.08,0.01,0.12,0.02C714.2,699.73,714.21,699.74,714.23,699.75z M679.42,721.16
				c0-0.01-0.01-0.02-0.01-0.03c0.01,0,0.02,0.01,0.03,0.01C679.44,721.14,679.43,721.15,679.42,721.16z M637.58,702.73
				c0.2-0.05,0.4-0.08,0.6-0.09C637.98,702.7,637.78,702.73,637.58,702.73z M602.6,696.29c0-0.01,0-0.02,0-0.03
				c0.1,0.06,0.2,0.13,0.29,0.18C602.75,696.42,602.6,696.35,602.6,696.29z M584.55,681.12c-0.04,0-0.08,0-0.12,0
				c0.01-0.06,0.02-0.1,0.03-0.16C584.48,681.01,584.52,681.06,584.55,681.12z M444.78,788.4c0.06,0.12,0.12,0.23,0.19,0.36
				c0,0,0,0,0,0c0,0,0,0,0,0c-0.1,0.01-0.21,0.01-0.31,0.02C444.7,788.65,444.73,788.53,444.78,788.4z M462.99,785.76
				c0-0.01,0-0.03,0-0.04c0.02,0,0.03,0,0.05,0C463.02,785.73,463.01,785.74,462.99,785.76z M591.92,804.09
				c-0.06,0.03-0.11,0.08-0.17,0.11c0-0.05,0.01-0.09,0.02-0.14C591.82,804.08,591.87,804.08,591.92,804.09l0.05-0.05c0,0,0,0,0,0
				c0.01,0,0.01,0.01,0.02,0.01C591.97,804.07,591.95,804.08,591.92,804.09z M767.36,792.74c0.03,0.07,0.05,0.14,0.08,0.21
				c-0.06-0.01-0.12,0.01-0.18,0.02C767.29,792.89,767.32,792.82,767.36,792.74z M491.4,715.82c0.05,0.07,0.08,0.14,0.12,0.21
				c-2.12,1.1-3.18,3.01-3.36,5.57c-0.2,2.85,1.03,5.79,3.33,6.34c3.31,0.8,1.68-3.36,3.1-4.79c2.73,3.15,4.08,6.99,5.2,10.94
				c-2.45-1.97-5.52-2.23-8.36-3.13c-5.37-1.21-8.97-5.66-13.84-7.8c0,0,0,0,0,0c0.18-1.76-0.08-4.16,2.82-2.13
				c1.07,0.75,2.29,1.55,3.19,0.15c0.92-1.43-0.64-2.12-1.4-3.03c-0.79-0.94-1.76-1.79-2.19-2.95c0.22-0.07,0.43-0.16,0.65-0.22
				C484.23,715.2,487.97,713.42,491.4,715.82z M477.75,703.78L477.75,703.78c-0.01,0-0.02,0-0.03,0c0.03-0.06,0.06-0.13,0.1-0.19
				C477.8,703.66,477.76,703.71,477.75,703.78z M595.03,810.25c0.01,0.01,0.01,0.03,0.01,0.04c0,0-0.08,0.05-0.12,0.08
				c-0.01,0-0.01,0-0.02,0C594.95,810.33,594.99,810.29,595.03,810.25z M748.21,717.69c-0.03,0.04-0.05,0.08-0.08,0.12
				c0-0.06,0.01-0.13,0.01-0.2C748.16,717.64,748.18,717.67,748.21,717.69z M440.99,809.18
				C440.99,809.18,440.99,809.18,440.99,809.18c0.32-2.38,1.64-4.2,3.12-6.71c1.27,3.19-0.56,4.88-1.3,6.83
				C442.24,808.62,441.63,808.66,440.99,809.18z M665.64,823.81c0.04-0.03,0.08-0.07,0.13-0.1c0.02,0.01,0.04,0.03,0.06,0.04
				C665.77,823.76,665.71,823.79,665.64,823.81z M775.8,730.57c-0.21,0.1-0.42,0.22-0.63,0.38c0.18-0.16,0.36-0.3,0.55-0.45
				C775.74,730.53,775.77,730.55,775.8,730.57z M660.17,849.07c-0.06,0.01-0.11,0.02-0.17,0.03
				C660.06,849.09,660.11,849.08,660.17,849.07z M752.56,699.65c-0.02-0.01-0.03-0.01-0.05-0.02c0.02-0.01,0.03-0.01,0.05-0.02
				C752.56,699.62,752.56,699.63,752.56,699.65z M622.48,683.32c0.03-0.07,0.08-0.13,0.14-0.2c0,0.07-0.01,0.15-0.01,0.22
				C622.56,683.33,622.52,683.33,622.48,683.32z M588.48,669.14L588.48,669.14c-0.01-0.11-0.04-0.22-0.05-0.33
				c0.05,0.11,0.09,0.22,0.14,0.33C588.53,669.14,588.51,669.14,588.48,669.14z M445.16,833.96c0.11-1.1-0.24-2.53,1.48-2.82
				c0.08,0.08,0.19,0.14,0.28,0.2c0.47,1.46,1.14,2.79,2.02,3.78c-0.42,0.54-1.04,0.95-1.75,1.06
				C445.64,836.44,445.01,835.43,445.16,833.96z M485.76,805.33c2.81-1.54,5.5-0.87,8.81,0.4c-2.96,2.93-3.97,8.11-9.39,5.3
				C485.68,809.13,486.33,807.23,485.76,805.33z M487.37,827.31c1.2-3.06,3.61,1.02,5.27-0.56c0.45-2.35,1.58-1.61,2.77-0.65
				c2.1,0.49,2.5-1.07,3.13-2.34c1.28,1.97,3.1,4.04-2.01,4.81c-1.01,0.56-1.78,1.56-3.18,1.33c-3.09-0.5-4.86,0.71-5.67,3.11
				C486.57,831.23,486.63,829.18,487.37,827.31z M736.28,851.22c0.12,0.08,0.24,0.15,0.36,0.2c-0.26,0.71-0.7,1.37-1.11,2.04
				c-0.07,0.03-0.13,0.06-0.2,0.1C735.85,852.84,736.26,852.09,736.28,851.22z M738.57,854.86c-0.16-0.35-0.34-0.64-0.52-0.87
				C738.23,854.14,738.41,854.42,738.57,854.86z M785.34,864.31c0.02,0.01,0.04,0.02,0.06,0.03c-0.01,0.01-0.03,0.02-0.04,0.03
				C785.35,864.34,785.35,864.33,785.34,864.31z M790.48,867.44c0,0,0-0.01,0-0.01l0,0c0,0,0.01,0,0.01,0
				C790.49,867.43,790.49,867.43,790.48,867.44z M796.65,779.9c-0.6-0.37-1.25-0.5-1.95-0.42c-0.21,0.02-0.38,0.08-0.57,0.11
				c-0.35-0.74-0.66-1.49-0.37-2.38c0.05,0.02,0.1,0.03,0.15,0.05c2.04-0.39,1.35-2.15,1.66-3.42c0,0,0.06-0.05,0.13-0.1
				c0.01,0.02,0.02,0.03,0.03,0.05c-0.03,0.04-0.07,0.07-0.1,0.11c2,1.58,0.89,3.8,1.11,5.74
				C796.71,779.73,796.68,779.81,796.65,779.9z M794.88,755.68L794.88,755.68c0,0-0.05-0.08-0.11-0.16c0.01,0,0.01,0,0.02,0
				c0.04,0.05,0.08,0.1,0.12,0.15C794.9,755.67,794.89,755.67,794.88,755.68z M598.28,665.34c0.17-1.66,2.18-2.74,1.62-4.72
				c2.15,0.25,0.63,2.44,1.33,3.45c-0.61,1.09,0.63,1.05,1.07,1.51c-1.49,0.31-2.03,1.35-1.98,2.85
				C597.03,669.21,598.14,666.77,598.28,665.34z M432.27,715.64c-0.05,0-0.1,0-0.14,0c0.01-0.06,0.03-0.11,0.04-0.17
				C432.21,715.53,432.24,715.58,432.27,715.64L432.27,715.64z M663.69,852.36c0.04-0.07,0.07-0.13,0.11-0.2
				c0.02,0.05,0.05,0.09,0.07,0.14C663.81,852.32,663.75,852.34,663.69,852.36C663.69,852.36,663.69,852.36,663.69,852.36
				L663.69,852.36z M764.45,841.17c-0.02-0.07-0.04-0.14-0.05-0.21c0.11-0.02,0.23-0.04,0.34-0.06
				C764.64,840.99,764.54,841.08,764.45,841.17z M767.42,837.89c0.37,0.05,0.72,0.02,1.06-0.08c0.03,0.12,0.07,0.23,0.1,0.35
				c-0.35,0.03-0.69,0.06-1.04,0.09c-0.07,0.06-0.14,0.13-0.2,0.19C767.37,838.27,767.4,838.08,767.42,837.89z M774.83,847.84
				c-0.24-0.16-0.44-0.36-0.57-0.6C774.45,847.44,774.64,847.65,774.83,847.84z M800.9,773.68c-0.01-0.01-0.01-0.01-0.02-0.02
				c0,0,0,0,0,0c0,0,0,0,0,0c0.02-0.01,0.03-0.02,0.05-0.02C800.91,773.65,800.9,773.67,800.9,773.68z M544.22,650.16
				C544.22,650.16,544.22,650.16,544.22,650.16c-0.05,0-0.1-0.01-0.15-0.01c0.06-0.05,0.11-0.09,0.17-0.14
				c0.01,0.02,0.03,0.03,0.04,0.05L544.22,650.16z M373.81,830.4c-0.54,0.65-1.43,0.95-2.46,1.1c-0.12-0.05-0.2-0.14-0.29-0.2
				c-0.49,0.44-0.93,0.94-1.25,1.55c0.03,0.03,0.06,0.06,0.09,0.09c4.51,5.7,4.22,6.57-3.19,9.61c1.33,0.06,2.65,0.11,3.98,0.17
				c0,0,0,0,0,0c0.2,0.85-0.04,1.5-0.73,1.95c-0.17-0.06-0.34-0.11-0.53-0.13c-0.7,0.23-1.12,0.7-1.43,1.26
				c-1.72-1.99-3.6,0.69-5.4,1.02c0,0,0,0,0,0c0.12-1.87,1.77-4.08-1.05-5.28c0.12-0.34,0.07-0.68-0.17-1.01
				c0.12-0.03,0.23-0.05,0.36-0.08c0.88-2.68-0.12-5.01-1.34-7.28c-0.06-0.07-0.12-0.12-0.18-0.18c4.94,0.11,6.83-1.3,7.48-5.5
				c0.27,0.32,0.57,0.62,0.92,0.87c0.9,0.52,1.78,1.16,2.78,0.54c0.03,0.05,0.06,0.11,0.08,0.16c0.35,0.63,0.85,1.08,1.53,1.3
				C373.26,830.33,373.53,830.35,373.81,830.4z M672.11,867.4C672.11,867.4,672.11,867.4,672.11,867.4L672.11,867.4
				C672.11,867.4,672.11,867.4,672.11,867.4z M716.47,853.5c0-0.01,0-0.02,0-0.03c0.01,0.01,0.02,0.02,0.03,0.03
				C716.49,853.49,716.48,853.5,716.47,853.5z M801.07,787.76C801.07,787.76,801.07,787.76,801.07,787.76
				S801.07,787.76,801.07,787.76c0.03-0.07,0.04-0.13,0.07-0.19c0.04,0.06,0.08,0.13,0.12,0.19
				C801.19,787.76,801.13,787.76,801.07,787.76z M695.34,691.91L695.34,691.91L695.34,691.91L695.34,691.91z M675.45,673.63
				c0.14,0.1,0.29,0.19,0.43,0.28C675.69,673.91,675.53,673.82,675.45,673.63z M611.69,655.52c0.01-0.02,0.03-0.03,0.04-0.04
				C611.72,655.49,611.71,655.51,611.69,655.52C611.7,655.52,611.69,655.52,611.69,655.52z M607.54,653.34c0-0.01,0-0.03,0-0.04
				c0,0,0,0,0.01,0C607.54,653.31,607.54,653.33,607.54,653.34z M590.69,641.14c0.8-0.31,1.67-0.43,2.57-0.45
				C592.44,640.88,591.58,641.04,590.69,641.14z M386.75,751.26c0,0-0.01-0.01-0.01-0.01c0,0,0.01-0.01,0.01-0.02
				c0.01,0,0.01,0,0.02,0C386.76,751.24,386.75,751.25,386.75,751.26z M370.62,820.84c-0.04-0.05-0.09-0.09-0.13-0.14
				c0.01-0.01,0.01-0.01,0.02-0.02C370.55,820.74,370.58,820.79,370.62,820.84z M548.87,862.87c-0.27-0.09-0.54-0.18-0.83-0.26
				c-5.8-0.1-8.43,0.91-8.67,4.09c-0.58-1.09-1.48-1.94-3.2-2.2c-0.11,0.01-0.22,0.04-0.32,0.06c-0.01-2.27-0.02-4.54-0.03-6.81h0
				c0,0,0,0,0,0c0,0,0,0,0,0c0.87-0.68,1.03-1.52,1.03-2.41c1.65,1.22,3.07,2.65,4.28,4.48c1.84,2.76,5.67,2.78,7.97,2.12
				c2.57-0.74-0.25-3.59-0.28-5.55c0-0.17,0-0.24,0.01-0.27c-0.02-0.04-0.04-0.1-0.09-0.25c-0.01-0.03-0.01-0.07-0.02-0.1
				c1.79,0.78,2.78,3.16,5.03,3.03c-0.49,0.93-0.62,1.85-0.22,2.77C551.81,861.37,550.29,861.94,548.87,862.87z M568.09,879.4
				c-0.06-1.21,0.41-2.03,1.12-2.52c1.56,1.24,2.46,2.95-0.62,5.33c-0.17,0.13-0.3,0.31-0.4,0.5
				C568.17,881.61,568.14,880.5,568.09,879.4z M614.23,893.9c0.32-0.75,0.62-1.5,0.91-2.26c0.24-0.2,0.49-0.38,0.8-0.55
				c0.79-0.78,0.45-1.62,0.26-2.45c1.14-3.58,1.83-7.3,1.6-11.29c0.86,0.28,1.76,0.73,2.7,1.42c1.34,0.98,3.03,0.67,4.35-0.57
				c0,0-0.51-0.14-0.51-0.14c0.11-0.04,0.21-0.09,0.32-0.13c0.06,0.09,0.12,0.18,0.19,0.27c0.6,0.02,1.2,0.03,1.8,0.05
				c1.58,1.64,3.64-1.12,4.58,0.01c0.48,0.58,1.02,1.05,1.58,1.45c-5.07,5.08-7.05,12.3-12.02,17.46c-2.03,2.11-4.41,3.82-6.94,5.32
				C614.05,899.63,614.18,896.77,614.23,893.9z M713.46,886.78c0.35-0.03,0.62-0.09,0.84-0.18c-0.18,0.37-0.36,0.74-0.53,1.11
				C713.65,887.39,713.53,887.07,713.46,886.78z M716.26,878.43c-0.02,0.41-0.12,0.84-0.23,1.03
				C716.11,879.12,716.19,878.77,716.26,878.43z M724.28,668.5c-0.32,0.14-0.64,0.27-0.96,0.4
				C723.6,668.65,723.92,668.53,724.28,668.5z M714.7,671.67c-0.69,0.16-1.38,0.3-2.08,0.43
				C713.3,671.49,714.02,671.39,714.7,671.67z M695.21,671.03c0.04,0.02,0.08,0.05,0.13,0.07c0.5,5.56,4.88,4.89,8.43,5.56
				c0,0.01,0,0.03,0,0.04c0,0,0.11,0.25,0.11,0.26c-1.48,1.09-2.95,2.18-4.43,3.28c0,0,0,0,0,0c0,0,0,0,0,0
				c-4.79,2.65-3.27,7.59-4.1,11.68c-0.82-1.57-3.31-1.41-3.33-4.1c-0.03-4.25-3.25-4.91-6.66-4.8c-2.74,0.09-5.49,0.43-8.07-0.89
				c0,0,0,0,0,0c0,0,0,0,0,0c-0.09-1.78-1.6-4.23,1.55-4.46c0,0.05,0,0.1,0,0.16c1.36,3.59,3.8,0.89,5.75,1.02
				C693.76,679.43,694,679.42,695.21,671.03z M625.55,651.74c-0.14,0.44-0.25,0.88-0.29,1.3
				C625.22,652.62,625.3,652.19,625.55,651.74z M490.59,663.55c-0.01,0.07-0.04,0.14-0.07,0.2c-0.03,0.01-0.07,0.03-0.1,0.04
				c0,0,0,0-0.01,0C490.48,663.71,490.54,663.63,490.59,663.55z M408.81,867.13c-1.4-0.24-2.86-0.62-3.5,1.19
				c-0.54,1.53,0.27,2.69,1.21,3.81c0.82,0.98,2.66,1.86,1.33,3.43c-0.98,1.15-2.22-0.09-3.28-0.56c-0.65-0.29-1.3-0.47-2-0.39
				c-0.06,0.04-0.12,0.09-0.18,0.13c-0.26-0.22-0.54-0.41-0.88-0.51c-1.8-0.13-2.09-1.33-2.18-2.89c-0.07-1.37,0.11-2.89-0.8-4.01
				c0.4-0.24,0.67-0.6,0.76-1.09c0.74-0.35,1.49-0.7,2.23-1.04c0,0,0,0,0,0c1.88-0.68,3.65-1.47,4.99-2.71
				c0.19,2.9,0.98,4.68,3.54,3.7c0.7-0.27,4.9-1.79,8.09-2.9C415.6,865.72,412.89,867.82,408.81,867.13z M469.15,877.03
				c2.77-1.07,4.27-2.21,6.1-1.05c0.17,0.11-0.06,1.38-0.43,1.8C473,879.78,471.73,878.16,469.15,877.03z M541.25,921.3
				c-0.33-0.13-0.64-0.29-0.93-0.45c-0.07-0.01-0.12-0.04-0.19-0.05c-6.14-0.59-11.92-2.51-17.14-5.61
				c-0.91-0.69-1.82-1.39-2.71-2.13c-0.17-0.14-0.35-0.25-0.55-0.33c-0.1-0.18-0.2-0.36-0.29-0.54c-1.62-5.36-3.25-10.72-4.87-16.08
				c0.37-0.19,0.74-0.38,1.12-0.57c0,0,0,0,0,0c1.09,3.92,5.9,1.08,7.41,4.23c3.04-0.28,1.95-2.6,2.06-4.33
				c0.1-1.09,0.2-2.17,0.38-4.1c0.97,2.54,2.34,3.41,3.91,4.06c-0.75,4.06,1.76,3.6,4.24,3.18c0.47-0.32,0.91-0.55,1.33-0.72
				c0.23,0.85,0.42,1.73,0.58,2.65c-0.19,0.46-0.26,0.98-0.18,1.52c0.39,2.48,0.93,4.91,1.6,7.28c0.71,1.13,1.41,2.28,1.87,3.54
				c0.07,0.07,0.14,0.13,0.21,0.2c1.88,1.75,2.95,3.73,4.12,6C543.83,920.27,542.52,921.83,541.25,921.3z M557.99,907.34
				c-0.59,0.78-1.16,1.58-1.73,2.38c-0.35-0.97-0.69-1.94-1.04-2.88c-1.17-3.18-2.65-6.69-3.95-10.32
				c-0.92-4.97-1.64-9.98-2.16-15.02c0.97-0.74,2.2-1.06,3.59-1.37c1.27-1.35,0.31-2.72,0.02-4.08c-0.26-4.17,5.16-4.71,5.31-8.62
				c0.74,0.79,1.46,1.57,2.2,2.35c0.84,4.87,1.77,9.72,2.1,14.65C562.86,892.53,560.65,899.86,557.99,907.34z M589.54,935.22
				c-2.25,9.73-4.03,19.49-5.2,29.34c-0.36,2.01-0.67,4.03-0.91,6.06c-0.05,0.32-0.1,0.64-0.14,0.96
				c-1.51-5.16-2.58-10.38-1.98-15.97c0.05-0.48-0.02-0.88-0.16-1.22c0.08-0.88,0.13-1.75,0.17-2.63c0.6-2.32,0.67-4.64,0.15-7.09
				c-1.5-7.03-4.53-14.06-10.46-18.23c-3.18-2.24-6.81-3.76-9.48-6.66c6.27-3.98,9.83-10.59,9.37-18.19
				c-0.02-0.26-0.05-0.51-0.07-0.77c-0.73-2.42-1.86-4.95-2.13-7.1c-0.41-3.18-0.44-6.39-0.49-9.6c0.11,0.11,0.26,0.18,0.45,0.17
				c3.63-0.21,3.63,3.51,5.61,5.58c2.59-7.58-3.68-12.72-3.61-19.15c0,0,0,0,0,0c2.71,0.31,1.81,2.57,2.17,4.16c0,0,0,0,0,0
				c0.36,0.83,1.03,1.08,1.79,1.15c0.27-1.47,1.42-2.73,3.35-2.63c0.99,0.05,1.7,0.2,2.64,0.54c1.27,0.45,1.92,1.49,2.15,2.72
				c0.27,0.33,0.53,0.66,0.78,1.01l0,0c0.29,0.4,0.58,0.82,0.85,1.24c0.2,0.03,0.38,0.09,0.57,0.15c0.09,0.03,0.18,0.06,0.26,0.1
				c0.04,0.02,0.08,0.04,0.12,0.06c0.23,0.12,0.45,0.26,0.65,0.44c0.3,0.27,0.57,0.59,0.76,1.02c1.09,2.48,2.11,4.99,3.25,7.44
				c0.61,0.04,1.19,0.28,1.65,0.73c0.08,0,0.16,0,0.23,0c-0.05,0.18-0.09,0.37-0.11,0.58c-0.75,7.57,0.39,15,0.71,22.55
				C592.8,919.93,591.33,927.52,589.54,935.22z M597.1,890.22c0.2-0.18,0.39-0.31,0.58-0.29c-0.22,0.22-0.41,0.49-0.54,0.8
				C597.12,890.56,597.12,890.39,597.1,890.22z M639.3,901.99c-0.09,0.18-0.17,0.37-0.24,0.58c-0.34,1.16-0.67,2.31-1.01,3.47
				c-0.04,0.05-0.07,0.11-0.11,0.16c-0.38,0.54-0.48,1.1-0.41,1.63c-0.37,1.27-0.74,2.54-1.11,3.81c-0.14,0.48-0.15,0.91-0.08,1.29
				c-6.78,18.01-8.5,37.54-13.63,56.13c-0.11,0.39-0.13,0.76-0.09,1.1c-0.65,1.76-0.94,3.54-0.86,5.4
				c-3.75,16.21-10.42,31.47-16.43,46.96c-0.02-9.97-0.2-20-1.77-29.74c-0.62-3.8-1.52-7.58-1.81-11.43
				c-0.32-4.09,0.2-8.14,0.24-12.22c0.02-2.68-0.23-5.27-0.69-7.8c0-0.03,0.01-0.06,0.01-0.08c0.34-1.92,0.72-3.83,1.12-5.74
				c-0.21-5.31,1.04-10.77,1.92-16.03c0.84-5.01,2.26-9.82,3.72-14.67c0.55-1.81,1-3.65,1.77-5.32c0.12-0.86,0.3-1.71,0.53-2.58
				c0.41-1.52,1.44-2.2,2.55-2.26c0.12-0.07,0.23-0.15,0.37-0.22c2.38-1.14,4.98-1.88,7.52-2.74c7.59-4.71,14.1-10.88,16.71-18.94
				c1.59-1.67,3.02-3.4,4.34-5.24C641.32,892.43,640.48,897.25,639.3,901.99z M674.65,888.49c-0.01,0.01-0.02,0.02-0.02,0.04
				c-4.1,7.45-6.15,15.52-6.11,24.01c-0.6,2.38-1.19,4.77-1.79,7.15c-0.25,0.88-0.5,1.76-0.74,2.64c-1.26,1.75-2.66,3.36-4.12,4.93
				c-4.79,3.65-10.05,8.77-11.46,13.9c-0.61,1.08-1.18,2.12-1.79,3.1c-1.05,0.14-2.1,0.24-3.13,0.34c-0.11,0.01-0.24,0.02-0.36,0.03
				c-0.26-0.73-0.53-1.47-0.81-2.19c-0.41-2.09-0.79-4.2-1.07-6.32c-0.08-2.03-0.05-4.07,0.18-6.09c0.2-1.77,0.6-3.37,1.13-4.89
				c0.63-3.9,1.16-7.93,2.71-11.58c1.58-3.73,4.28-6.02,6.67-9.11c2.84-3.7,1.8-9.96,2.35-14.55c0.27-2.26,0.65-4.47,1.3-6.59
				c2-2.54,5.08-5.84,7.06-5.05c3.84,1.52,8.54,2.56,11.12,6.12C675.39,885.74,675.02,887.11,674.65,888.49z M709.49,896.2
				c-3.55,6.25-8.61,9.89-14.47,12.56c-0.56,0.41-1.11,0.84-1.68,1.23c-0.84,0.58-1.84,0.75-2.76,0.59c-0.1,0.04-0.2,0.08-0.3,0.11
				c0.02-0.05,0.04-0.11,0.06-0.16c-1.73-0.42-3.08-2.02-2.3-4.21c1.14-3.23,1.57-6.97,3.56-9.83c0.91-1.31,2.36-2.07,3.21-3.39
				c0.85-1.34,1.09-2.99,1.24-4.58c0.69-0.22,1.59-0.68,2.84-1.37c0.67-2.11,1.5-3.98,3.75-3.82c-0.95,4.99-0.04,6.06,6.71,8.6
				l0.3,0.01l0.3-0.02c0.41-0.85,0.17-2.85,1.4-2.33c0.52,0.22,0.94,0.37,1.31,0.48C711.65,892.15,710.63,894.2,709.49,896.2z
				 M715.01,885.15c-0.03-0.24-0.07-0.51-0.15-0.81c-0.05-0.19-0.06-0.35-0.09-0.52c0.2-0.55,0.38-1.1,0.55-1.65
				c0.31-0.13,0.72-0.12,1.21,0.01C716.01,883.15,715.5,884.15,715.01,885.15z M721.18,874.84c-0.14,0.18-0.27,0.36-0.41,0.55
				c0,0,0,0,0,0c0,0,0,0,0,0.01c-0.64,0.84-1.23,1.7-1.79,2.58c0.06-2.93,1.48-4.85,4.19-5.84c-0.1,0.64-0.11,1.25,0.09,1.79
				C722.56,873.8,721.82,874.03,721.18,874.84z M755.65,867.18c-0.01-1.14,0.25-2.36-1.03-3.09c0,0,0,0,0,0
				c-2.24-3.46-7.33-3.95-8.49-8.52l0,0c-0.12-0.29-0.19-0.59-0.21-0.91c-0.12-0.15-0.25-0.3-0.37-0.45
				c0.18,0.19,0.47,0.28,0.86,0.29c2.05-4.19,5.19-0.31,8.16-1c-1.22-1.86-1.92-3.59,0.38-4.84c2.31-1.25,2.07,0.97,2.69,1.99
				c1.31,2.14,2.84,0.72,4.3,0.38c-0.05,0.24-0.08,0.49-0.03,0.77c0.05,1.77-6.88,3.68-0.71,5.32c-0.01,2.05,1.25,3.14,2.99,3.86
				c0.43,0.12,0.86,0.24,1.28,0.38c0.94,2.26,2.21,4.48,0.68,7.1c-0.15,0.1-0.31,0.17-0.47,0.23c-0.02-0.23-0.05-0.45-0.12-0.67
				C762.51,864.53,758.97,867.23,755.65,867.18z M804.19,839.5C804.19,839.5,804.19,839.5,804.19,839.5
				C804.19,839.5,804.19,839.5,804.19,839.5C804.19,839.5,804.19,839.5,804.19,839.5z"/>
		</g>
		<g>
			<path d="M548.83,856.11C548.88,856.2,548.85,856.05,548.83,856.11L548.83,856.11z"/>
		</g>
	</g>
	<g>
		<path class="st30" d="M891.82,1232.32h-10.77C885.43,1231.43,889.36,1231.41,891.82,1232.32z"/>
	</g>
	<g>
		<path class="st30" d="M933.09,1229.53c2.34,0.33,4.16,1.32,5.54,2.78h-19.95C923.64,1229.86,928.5,1228.81,933.09,1229.53z"/>
	</g>
	<g>
		<polygon class="st31" points="674.05,1141.59 675.34,1141.59 674.34,1144.42 		"/>
	</g>
	<g>
		<path class="st32" d="M694.77,1468.51c0-32,11.03-69.18,17.51-87.77c2.59-7.13,9.51-9.51,16.65-9.51c9.08,0,18.38,3.89,18.38,6.7
			l-0.22,0.86c-10.59,20.32-28.1,66.37-28.1,102.04c0,14.92,3.03,28.1,11.24,36.75c3.03-35.24,38.7-138.36,75.88-149.17
			c1.95-0.65,3.68-0.86,5.62-0.86c9.08,0,17.94,5.84,22.27,14.05l0.22,0.65c0,0.43-0.43,1.08-1.3,1.08
			c-48.64,6.49-82.15,100.09-94.26,139.87c-0.22,0.22-0.43,1.08-1.3,1.08C704.71,1524.29,694.77,1498.78,694.77,1468.51z"/>
		<path class="st32" d="M794.21,1524.29c-12.75,0-17.08-9.73-17.08-22.92c0-22.48,12.54-54.69,16.86-65.29
			c1.73-3.89,7.13-5.19,12.54-5.19c6.7,0,13.62,2.16,13.62,4.54l-0.22,0.65c-4.32,7.78-23.78,52.97-23.78,71.99
			c0,3.89,0.86,6.92,3.03,7.78c0.65,0.43,1.51,0.43,2.16,0.43c8,0,16.65-18.16,19.46-24.64c0.22-0.43,0.65-0.65,1.08-0.65
			c1.08,0,1.3,0.86,1.3,1.3v0.43c-3.89,11.89-11.67,30.7-27.02,31.56H794.21z M804.58,1413.17c0-6.92,6.05-16.65,14.92-16.65
			c6.49,0.22,9.73,4.11,9.73,10.38c0,8.86-7.57,16-14.7,16C809.56,1422.9,804.58,1419.87,804.58,1413.17z"/>
		<path class="st32" d="M838.31,1524.29c-9.51,0-14.92-4.54-17.08-13.19c-0.65-3.03-1.08-6.27-1.08-9.95
			c0-28.97,21.4-75.88,30.91-98.36c1.51-3.89,7.57-5.19,13.4-5.19c6.92,0,14.05,1.95,14.05,4.11l-0.22,0.65
			c-5.84,11.67-39.56,82.8-39.56,106.36c0,3.68,0.86,6.27,3.03,7.13l1.95,0.43c8.22,0,17.94-18.59,20.54-24.64
			c0.22-0.43,0.65-0.65,1.08-0.65c0.65,0,1.3,0.43,1.3,1.08l-0.22,0.65c-3.68,11.89-11.46,31.13-26.81,31.56H838.31z"/>
		<path class="st32" d="M881.76,1524.29c-9.51,0-14.92-4.54-17.08-13.19c-0.65-3.03-1.08-6.27-1.08-9.95
			c0-28.97,21.4-75.88,30.91-98.36c1.51-3.89,7.57-5.19,13.4-5.19c6.92,0,14.05,1.95,14.05,4.11l-0.22,0.65
			c-5.84,11.67-39.56,82.8-39.56,106.36c0,3.68,0.86,6.27,3.03,7.13l1.95,0.43c8.21,0,17.94-18.59,20.54-24.64
			c0.22-0.43,0.65-0.65,1.08-0.65c0.65,0,1.3,0.43,1.3,1.08l-0.22,0.65c-3.67,11.89-11.46,31.13-26.81,31.56H881.76z"/>
		<path class="st32" d="M966.71,1524.29c-13.62,0-17.29-11.24-17.29-23.13l0.22-4.97c-2.59,7.13-4.97,12.54-7.78,16.43
			c-4.32,5.4-8.65,7.57-14.7,7.57h-2.59c-11.89-1.51-16.86-12.32-16.86-25.94c0-26.59,18.38-63.56,41.29-63.56
			c7.57,0,13.4,3.89,15.13,11.24l2.59-6.27c2.59-3.46,7.57-4.97,12.75-4.97c4.97,0,9.95,1.51,12.54,3.68
			c0.22,0.22,0.43,0.43,0.43,0.86l-0.22,0.86c-4.32,8.65-16,35.45-21.19,55.99c-0.65,2.81-2.59,10.16-2.59,16
			c0,3.67,0.65,6.7,3.03,7.78l1.73,0.22c7.13,0,17.51-18.59,20.11-24.43c0.22-0.43,0.65-0.65,1.08-0.65c0.65,0,1.3,0.43,1.3,1.3
			v0.43c-3.89,11.89-11.67,30.7-27.02,31.56H966.71z M941.64,1504.18c4.32-7.78,11.46-27.67,15.56-42.59v-0.22
			c1.73-6.27,2.38-10.81,2.38-13.84v-1.08c-0.43-2.59-1.51-3.68-3.46-4.11l-1.3-0.22c-6.49,0-14.48,11.89-20.11,25.94
			c-3.67,9.08-6.7,20.32-7.13,29.62v2.16c0,6.49,1.73,11.03,5.62,11.89h0.65C936.01,1511.75,938.39,1509.59,941.64,1504.18z"/>
		<path class="st32" d="M998.06,1559.52c0-2.38,0.22-4.97,1.08-7.78c3.89-13.4,11.46-19.24,24-23.35c1.51-5.4,3.46-12.11,5.19-17.29
			c-4.11,6.27-8.43,9.3-15.13,9.3l-2.59-0.22c-12.11-1.51-17.29-12.75-17.29-27.02c0-26.37,17.73-62.48,40.21-62.48
			c7.13,0,13.19,3.68,15.35,10.81c0.65-1.73,1.51-4.76,2.16-6.27c1.51-3.03,6.92-4.32,12.32-4.32c6.49,0,12.97,1.73,12.97,4.32
			l-0.22,0.86c-4.11,9.08-16.65,46.7-28.32,84.74c10.81-3.68,24.21-11.03,30.05-28.75c0.22-0.65,0.65-1.08,1.3-1.08
			c0.43,0,1.08,0.43,1.08,1.08v0.43c-5.19,25.29-24.64,30.7-34.37,34.16l-9.73,31.56c-4.11,13.4-13.19,19.24-21.62,19.24
			C1005.84,1577.25,998.06,1570.55,998.06,1559.52z M1015.57,1554.55c1.94-6.7,3.89-13.19,5.62-19.67
			c-7.78,3.24-13.84,8.22-17.08,18.59c-0.65,2.16-0.86,3.89-0.86,5.62c0,3.67,1.51,5.84,3.89,5.84
			C1009.73,1564.93,1013.19,1561.9,1015.57,1554.55z M1036.97,1479.54c1.51-5.19,7.35-21.19,7.35-30.27c0-3.68-1.08-6.49-3.46-6.92
			l-1.08-0.22c-11.89,0-26.59,36.97-26.59,57.07c0,6.92,1.73,11.67,5.84,12.54h0.65
			C1027.24,1511.75,1035.24,1484.51,1036.97,1479.54z"/>
		<g>
			<path class="st32" d="M1077.82,1492.94c0-27.24,19.89-62.05,41.08-62.05h0.22c11.67,0,17.94,7.35,17.94,17.29
				c0,5.19-1.51,11.03-4.97,16.86c-6.27,10.81-17.51,14.92-25.08,14.92c-2.81,0-5.19-0.65-6.27-1.73
				c-2.38,6.92-4.32,14.92-4.32,21.83c0,8.86,3.03,16,11.89,17.3c1.3,0.22,2.38,0.22,3.67,0.22c14.27,0,23.35-13.84,28.97-25.73
				c0.22-0.65,0.65-0.86,1.08-0.86c0.65,0,1.51,0.43,1.51,1.3l-0.22,0.43c-6.7,19.02-15.35,31.56-36.75,31.56
				C1085.82,1524.29,1077.82,1510.24,1077.82,1492.94z M1128.19,1452.3c0-3.46-1.51-5.84-4.32-5.84h-0.22
				c-5.62,0.22-14.7,9.94-19.67,22.92c1.94,0.43,3.67,0.65,5.4,0.65C1122.14,1470.02,1128.19,1459.22,1128.19,1452.3z"/>
		</g>
	</g>
	<g>
		<g>
			<path d="M694.81,1192.67c7.44-10.67,13.25-11.96,4.85-13.57c-9.7-1.62-19.4,0.32-28.12,8.73c-58.53-6.14-79.86,34.92-66.61,55.93
				c10.35,16.49,12.29,8.41,13.26,6.14c6.79-18.43,18.75-27.81,34.59-31.36c-13.9,27.8-32.33,71.13-38.79,99.58
				c-0.65,2.91,2.26,7.44,6.78,12.61c-4.85-0.97-9.37-1.94-13.57-3.56c-8.08-2.58-21.66-19.72-19.08-25.22
				c1.95-4.2-6.79-4.52-16.49,6.47c-16.81,20.05,5.5,46.56,35.89,55.61c31.69,9.05,94.73-0.97,111.87-32.65
				c13.9-25.86,2.58-44.62-15.52-54.97c13.58-2.91,26.19-9.7,32.65-22.96C748.48,1228.24,728.75,1203.67,694.81,1192.67z
				 M711.29,1242.79c-2.26,12.61-15.52,18.1-32.65,20.69c-4.53,0.65-12.94,12.29-7.44,13.26l2.26,0.65
				c19.4,3.56,28.13,17.78,20.7,31.36c-8.08,15.2-26.19,21.99-45.59,23.28c1.94-14.87,5.5-32.98,11.64-50.76
				c9.06-29.75,16.49-49.47,22.31-63.69C701.6,1220.8,713.56,1231.15,711.29,1242.79z"/>
		</g>
		<g>
			<path d="M845.87,1275.54c-0.15,0.26-0.28,0.55-0.41,0.88c-5.82,16.49-15.52,30.07-23.28,30.07c-3.88,0-5.81-3.56-5.81-9.05
				c0-3.24,0.97-7.44,2.58-11.97c4.85-10.99,12.61-19.4,9.38-33.3c-3.88-15.52-30.07-32.01-30.07-17.13
				c0,6.14-0.65,11.31-1.62,15.84c-3.88-9.7-10.34-18.43-19.72-18.43c-17.14,0-33.31,19.4-41.07,48.17
				c-7.76,28.78,1.29,53.03,18.76,53.03c12.28,0,21.98-10.02,28.77-23.6c2.59,14.87,12.94,23.6,25.23,23.6
				c12.52,0,23.78-10.22,31.93-22.03c5.53-8.01,9.62-16.77,11.71-23.56C855.65,1276.97,848.77,1270.29,845.87,1275.54z
				 M787.92,1276.09v0.32c-0.32,0.32-0.32,0.65-0.32,0.97l-0.97,2.58c-5.5,15.2-12.94,26.52-17.78,26.52
				c-6.47,0-7.11-15.2-2.59-30.72c4.53-16.49,11.97-27.81,18.76-26.51C790.5,1250.23,791.47,1264.13,787.92,1276.09z"/>
		</g>
		<g>
			<path d="M953.78,1276.42c-1.56,4.28-3.55,8.64-5.77,12.77c-6.48,12.08-14.97,22.14-20.75,22.14c-4.2,0-4.85-5.81-3.55-11.96
				c2.58-10.34,14.23-25.86,17.78-45.91c1.45-8.63,1.1-16.91-2.87-21.14c-1.38-1.47-3.2-2.45-5.54-2.78
				c-4.58-0.72-9.44,0.33-14.41,2.78c-15,7.38-30.92,27.41-42.81,49.27c5.82-16.17,11.96-31.04,18.1-43.98
				c1.25-2.68,0.24-4.42-2.15-5.3c-2.46-0.91-6.38-0.88-10.77,0c-7.76,1.56-16.95,5.82-22,12.41c-5.7,7.71-10.09,18.71-13.17,30.81
				c-2.88,11.26-4.64,23.46-5.26,34.82c-0.03,0.42-0.05,0.84-0.07,1.25c-0.88,21.23,16.34,25.56,21.73,23.98
				c0.97-0.33,1.62-0.65,1.94-1.62c6.47-33.62,34.28-81.8,43.33-79.21c5.5,1.29-10.34,18.43-14.55,41.06
				c-5.5,30.72,6.79,44.3,23.6,42.68c13.57-1.35,24.34-11.89,32.19-24.49c5.25-8.43,9.19-17.78,11.78-25.95
				C963.8,1276.42,956.04,1269.62,953.78,1276.42z"/>
		</g>
		<g>
			<path d="M1038.81,1247.64c-3.55-15.84-29.42-29.09-29.42-14.22c0,4.52-0.32,8.73-0.65,12.28c-3.88-7.44-9.7-13.58-17.46-13.58
				c-17.46,0-33.3,19.4-41.38,48.17c-0.82,3.02-1.44,5.99-1.88,8.9c-1.42,9.23-1.05,17.75,0.78,24.81
				c3.06,11.89,10.24,19.64,19.86,19.64c10.03,0,18.43-6.79,24.89-16.49c-0.65,4.85-0.97,8.73-3.23,14.23
				c-6.79,16.81-25.86,21.02-46.88,0.65c-3.55-2.91-7.76,5.82-3.23,19.4c4.85,14.22,19.07,22.3,33.95,22.63
				c28.12,0,44.3-23.28,50.44-58.2C1031.37,1277.06,1042.04,1261.54,1038.81,1247.64z M1003.25,1271.89l-2.91,9.71
				c-5.82,14.54-12.93,24.57-17.46,24.57c-6.14,0-6.79-14.87-2.58-30.72c4.85-16.49,12.28-27.81,19.07-26.51
				C1003.89,1249.91,1005.19,1261.22,1003.25,1271.89z"/>
		</g>
		<g>
			<path d="M1106.91,1280.54c-0.47-5.07-3.41-7.82-5.7-6.79c-0.76,0.34-1.45,1.11-1.95,2.35c-1.62,4.69-3.58,9.11-5.71,13.04
				c-5.52,10.14-12.3,17.03-17.89,17.03c-4.85,0-8.08-11.32-6.14-27.49c1.94-14.87,6.46-28.77,9.38-32.33
				c11.31-13.9,19.07-28.12,17.13-41.71c-2.26-13.9-12.94-23.93-20.05-22.63c-13.57,2.26-26.51,42.68-37.5,104.11
				c-5.5,30.72,5.81,47.53,23.93,47.53c12.14,0,23.17-9.69,31.32-21.3c5.74-8.16,10.05-17.27,12.32-24.62
				C1106.89,1285.01,1107.1,1282.58,1106.91,1280.54z"/>
		</g>
		<g>
			<path d="M1204.99,1276.42c-5.81,16.49-15.52,30.07-23.28,30.07c-3.88,0-5.81-3.56-5.81-9.05c0-3.24,0.97-7.44,2.58-11.97
				c1.55-3.51,3.39-6.74,5.08-9.99c3.6-6.92,6.5-13.84,4.29-23.31c-3.88-15.52-30.07-32.01-30.07-17.13
				c0,6.14-0.65,11.31-1.61,15.84c-3.88-9.7-10.34-18.43-19.72-18.43c-15.06,0-29.38,14.99-37.88,38.15
				c-1.18,3.19-2.25,6.54-3.18,10.02c-0.78,2.89-1.39,5.74-1.83,8.51c-1.39,8.55-1.25,16.49,0.18,23.22
				c2.71,12.84,10.1,21.3,20.4,21.3c12.28,0,21.99-10.02,28.77-23.6c2.59,14.87,12.94,23.6,25.23,23.6
				c21.01,0,38.48-28.77,43.64-45.59C1215.34,1276.42,1207.58,1269.62,1204.99,1276.42z M1128.37,1306.49
				c-3.75,0-5.54-5.1-5.51-12.41c0.02-5.31,1.01-11.77,2.91-18.3c4.53-16.49,11.97-27.81,18.76-26.51
				c5.49,0.97,6.46,14.87,2.91,26.83v0.32c-0.32,0.32-0.32,0.65-0.32,0.97l-0.97,2.58c-1.02,2.8-2.09,5.47-3.21,7.95
				C1138,1298.95,1132.32,1306.49,1128.37,1306.49z"/>
		</g>
	</g>
	<g>
		<path d="M1159.57,1221.89l28.83-1.45c0.01,0,0.02,0,0.02,0l0.29-0.02c-0.02,0.02-0.12,0.02-0.29,0.02c-0.01,0-0.02,0-0.02,0
			c-1.13-0.11-5.08-0.93-8.72-1.69l-0.08-0.02c-3.58-0.75-6.85-1.42-6.85-1.27l6.85,1.27l0.08,0.02l9.04,1.68
			c-1.02,2.8,1.12,12.01,0,14.5l9.31,22.85l36.6,2.06l4.93-40.17l6.78-59.86l-85.36,11.29l0,0"/>
		<g>
			<path d="M796.76,1418.19c-2.31,2.94-4.61,6.11-6.89,9.51c2.01-1.83,4.89-3.52,9.05-4.47
				C797.96,1421.71,797.24,1420.02,796.76,1418.19z M806.21,1496.86c1.32-0.8,2.61-1.6,3.91-2.4c0.82-1.6,1.65-3.32,2.48-5.19
				c1.8-12.92,6.11-27.51,11.13-41.58C818.34,1459.69,809.74,1481.43,806.21,1496.86z M1032.18,1321.23
				c-0.12,0.6-0.25,1.18-0.38,1.77c0.27-0.26,0.54-0.52,0.81-0.77C1032.46,1321.9,1032.32,1321.57,1032.18,1321.23z M936.81,1289.97
				c-0.92,1.85-1.77,3.6-2.51,5.22c1.2-1.62,2.48-3.53,3.81-5.71C937.67,1289.64,937.24,1289.8,936.81,1289.97z M861.32,1461.27
				c0.56-0.38,1.12-0.77,1.67-1.15c1.72-5.48,3.61-10.97,5.6-16.36C866.13,1449.49,863.66,1455.41,861.32,1461.27z M929.59,1405.6
				l-0.27,0.54c-1.18,2.35-2.59,5.25-4.17,8.58c14.23-11.04,27.88-22.07,40.89-32.99c-16.04-2.83-28.92-13.09-33.85-27.57
				c-1.23-3.68-1.98-7.3-2.26-10.7c-4.04,1.86-8.21,3.02-12.5,3.45c-1.18,0.11-2.34,0.17-3.47,0.17c-4.48,0-8.71-0.9-12.5-2.61
				c-3.79-1.72-7.14-4.25-9.87-7.5c-4.35-5.2-8.81-14.28-8.36-29.52c-0.7,0.2-1.4,0.4-2.09,0.59c-3.77,9.11-6.91,18.62-8.63,27.52
				l-0.11,0.55l-0.17,0.53c-1.12,3.36-3.55,5.7-7.24,6.95l-0.17,0.06l-0.18,0.05c-1.44,0.43-3.05,0.64-4.79,0.64
				c-5.45,0-13.43-2.25-19.51-8.59c-1.45-1.51-2.98-3.47-4.32-5.91c-8.68,8-18.09,12.27-27.42,12.27
				c-10.41,0-19.53-4.68-25.74-12.56c-0.93,0.15-1.87,0.3-2.8,0.45c-7.41,7.97-16.02,12.11-25.46,12.11
				c-6.21,0-11.97-2.15-16.73-6.15c-4.09,0.5-8.16,0.98-12.21,1.43c-7.34,12.11-20.72,22.09-38.89,28.95
				c-15.99,6.03-34.78,9.36-52.92,9.36c-5.36,0-10.52-0.31-15.34-0.89c-4.82-0.59-9.31-1.48-13.34-2.62l-0.09-0.03
				c-17.23-5.13-31.73-15.03-40.08-26.79c-46.91-0.41-76.46-3.05-76.46-3.05l182.31,224.95c35.08-15.2,68.56-32.05,100.36-49.92
				c-1.58-4.14-2.56-9.35-2.56-15.95c0-21.58,10.26-50.54,16.84-66.89c-2.01,3.28-4.01,6.73-6.01,10.37
				c-15.99,29.22-27.39,63.18-32.75,80.82l-0.62,2.01l-0.89,0.89c-2.64,3.75-6.34,4.17-7.88,4.17c-19.07,0-51.05-8.34-51.05-64.23
				c0-35.21,12.57-75.06,17.98-90.56l0.04-0.11c3.48-9.58,12.45-15.08,24.6-15.08c8.75,0,26.83,3.71,26.83,15.17v1.04l-0.72,2.85
				l-0.46,0.89c-10.5,20.13-27.15,64.57-27.15,98.13c0,2.15,0.07,4.2,0.21,6.17c4.77-17.85,11.94-38.4,19.97-56.58
				c12.43-28.11,32.22-63.05,55.97-70.09c2.6-0.85,5.19-1.25,8.14-1.25c11.94,0,23.9,7.47,29.75,18.57l0.32,0.62l0.87,2.61v1.37
				c0,4.99-3.94,9.1-8.93,9.51c-0.77,0.11-1.53,0.26-2.3,0.42c3.97,3.31,6.25,8.41,6.25,14.71c0,8.88-5.02,17.01-12.13,21.3
				c1.74,1.71,2.85,3.88,3.01,6.53c4.11-10.51,8.31-20.32,11.76-28.36c1.05-2.45,2.02-4.71,2.9-6.78
				c1.6-3.97,6.47-10.44,21.23-10.44c9.96,0,20.53,2.77,22.26,10.34c1.64-3.98,6.54-10.34,21.19-10.34
				c10.88,0,22.51,3.3,22.51,12.57v1.37L929.59,1405.6z M993.04,1265.56c-1.51,3.09-3.1,7.11-4.59,12.17
				c-1.43,5.41-2.1,10.11-2.31,13.77c1.86-3.08,4.01-7.28,6.21-12.71l2.66-8.87c0.35-2.04,0.54-3.95,0.62-5.68
				C994.76,1264.69,993.9,1265.13,993.04,1265.56z"/>
		</g>
	</g>
	<g>
		<polygon class="st32" points="1275.47,1127.64 1239.63,1103.48 1254.46,1127.64 1239.63,1114.43 1239.63,1127.64 1226.03,1100.66 
			1230.97,1127.64 1215.85,1114.14 1215.85,1127.64 1208.72,1108.78 1208.72,1127.64 1192.08,1103.48 1192.08,1127.64 
			1176.67,1103.48 1183.99,1127.64 1168.31,1114.14 1166.06,1127.64 988.82,943.67 1054.39,884.49 1285.7,1127.64 1253.22,1101.21 
					"/>
	</g>
	<g>
		<g>
			<rect x="1030.19" y="1116.97" class="st38" width="0.38" height="40.3"/>
		</g>
		<g>
			<rect x="1044.15" y="1116.97" class="st38" width="0.38" height="40.3"/>
		</g>
		<g>
			<rect x="1058.11" y="1116.97" class="st38" width="0.38" height="40.3"/>
		</g>
		<g>
			<rect x="1072.07" y="1116.97" class="st38" width="0.38" height="40.3"/>
		</g>
		<g>
			<rect x="1086.02" y="1116.97" class="st38" width="0.38" height="40.3"/>
		</g>
	</g>
	<g>
		<path class="st30" d="M554.16,1100.4v111.31l42.37,4.42c0.79-2.13,1.74-4.23,2.88-6.28c10.6-19,33.75-30.33,61.92-30.33
			c2.92,0,5.93,0.12,8.98,0.35c7.33-5.97,15.71-8.98,24.97-8.98c2.41,0,4.92,0.21,7.44,0.62l0.19,0.04
			c2.69,0.51,8.28,1.57,10.06,6.81c1.57,4.65-1.04,8.11-3.57,10.93c18.02,7.81,31.33,19.51,37.23,33.04c1.4,3.21,2.35,6.47,2.9,9.76
			l2.33,0.25v-186.38L554.16,1100.4z"/>
	</g>
	<g>
		<path class="st30" d="M1160.97,1123.07v98.41c-4.36,0.58-8.45,3.26-10.09,8.4c-4.28-3.43-9.13-5.23-14.35-5.23
			c-7.3,0-14.38,2.71-20.89,7.67h-17.79c0.54-1.07,1.06-2.13,1.53-3.18c4.18-9.22,5.63-17.76,4.47-25.99l-0.02-0.15
			c-2.57-16.05-14.6-29.61-26.27-29.61c-0.87,0-1.74,0.08-2.58,0.23c-8.9,1.54-20.09,10.62-32.45,58.69h-2.92
			c-6.64-7.95-16.3-13.26-23.78-13.26c-6.08,0-10.66,3.24-12.58,8.48c-3.53-2.11-7.36-3.21-11.37-3.21c-5.63,0-11.1,1.56-16.27,4.48
			v-174.73H866.76v175.6c-1.5,0.8-2.97,1.68-4.37,2.65h-36.77c-6.51-6.4-14.55-10.96-21.12-10.96c-4.99,0-10.02,2.67-11.88,8.52
			c-4.28-3.43-9.13-5.23-14.35-5.23c-4.63,0-9.17,1.09-13.54,3.16v-125.47l198.12-197.78L1160.97,1123.07z"/>
	</g>
	<g>
		<path class="st32" d="M731.06,1141.5c2.12-2.1,39.79-39.5,31.39-34.7c-8.65,4.93-43.7,34.79-43.7,34.79l11.63-23.89l-19.06,23.89
			l3.54-18.38l-18.12,18.38l6.37-35.22l-20.93,35.22v-28.9l-10.43,28.9h-1.27l-2.42-23.89l-11.66,23.89v-23.89l-7.45,23.89
			l14.81-66.75l-29.43,66.75l7.77-32l-24.46,32l3.1-23.89l-16.29,23.89l11.67-44.85l-20.73,44.85v-23.89l-14.73,23.89l7.05-36.36
			l-17.34,36.36v-23.89l-10.78,23.89v-27.94L534,1141.59l1.03-18.38l-10.15,18.38v-18.38l-14.87,18.38v-16.05l-21.39,16.05
			l7.15-16.05l-23.86,16.05l281.33-217.46l278.54-49.54L731.06,1141.5z"/>
	</g>
</g>
</svg>
